{"glyphs":{":":{"x_min":0,"x_max":222,"ha":222,"o":"m 165 397 q 165 375 149 359 q 133 344 110 344 q 87 344 72 359 q 56 375 56 397 q 56 421 71 437 q 87 452 110 452 q 133 452 149 437 q 165 421 165 397 z m 165 38 q 165 15 149 0 q 133 -16 110 -16 q 87 -16 72 0 q 56 15 56 38 q 56 62 71 77 q 87 93 110 93 q 133 93 149 77 q 165 62 165 38 z"},"$":{"x_min":0,"x_max":497,"ha":497,"o":"m 460 161 q 460 96 403 48 q 350 2 270 -12 l 270 -96 l 250 -96 l 250 -14 q 244 -14 232 -15 q 220 -16 215 -16 l 215 -96 l 195 -96 l 195 -15 q 116 -15 62 31 q 5 79 5 153 q 5 210 46 247 q 83 281 134 281 q 164 281 179 269 q 195 257 195 236 l 195 373 q 140 403 112 431 q 76 466 76 507 q 76 554 112 584 q 144 611 195 619 l 195 684 l 215 684 l 215 621 q 225 623 236 623 q 246 623 250 622 l 250 684 l 270 684 l 270 620 q 308 616 328 604 q 354 590 354 562 q 354 548 343 537 q 332 525 317 525 l 311 525 q 307 525 303 525 q 299 526 295 527 q 291 527 291 531 l 294 536 q 299 542 301 546 q 305 555 305 564 q 306 579 296 588 q 286 597 270 601 l 270 404 q 334 372 367 348 q 412 315 435 273 q 460 227 460 161 z m 250 415 l 250 604 q 242 606 233 606 q 229 606 223 606 q 218 605 215 604 l 215 434 z m 195 444 l 195 602 q 163 594 144 577 q 123 558 123 528 q 123 502 143 482 q 156 469 195 444 z m 411 163 q 411 223 371 266 q 341 297 270 334 l 270 21 q 332 32 370 69 q 411 108 411 163 z m 250 18 l 250 345 l 215 362 l 215 16 q 221 16 232 17 q 244 18 250 18 z m 195 17 l 195 236 q 195 221 186 210 q 178 201 168 198 q 166 197 164 198 l 162 201 q 167 208 167 218 q 164 237 156 244 q 146 254 128 254 q 89 254 63 230 q 31 203 31 152 q 31 96 80 58 q 125 23 195 17 z"},"?":{"x_min":0,"x_max":484,"ha":484,"o":"m 416 539 q 416 489 391 446 q 371 413 330 376 q 295 346 260 315 q 238 297 228 283 q 211 260 211 234 q 211 223 214 212 q 217 202 225 192 q 230 186 235 183 q 240 181 245 180 q 251 180 251 175 q 251 173 248 171 q 239 167 237 165 q 234 164 226 157 q 221 154 214 148 q 210 144 208 143 q 204 140 201 140 q 198 140 194 143 q 183 149 175 164 q 167 180 164 198 q 164 202 164 206 q 164 210 164 211 q 164 234 171 257 q 178 276 190 297 q 200 313 224 336 q 237 349 257 366 q 295 400 310 423 q 345 476 345 549 q 345 601 317 634 q 285 672 227 672 q 175 672 142 641 q 111 612 111 572 q 111 537 124 518 q 136 498 161 498 q 182 498 197 517 q 200 520 202 526 q 204 532 205 536 q 207 539 210 539 q 213 539 217 534 q 221 529 223 515 q 226 501 226 489 q 223 465 202 448 q 181 431 153 431 q 115 431 92 461 q 69 491 69 540 q 69 608 118 653 q 167 698 236 698 q 316 698 365 658 q 416 616 416 539 z m 263 38 q 263 15 247 0 q 231 -16 208 -16 q 185 -16 169 0 q 153 15 153 38 q 153 62 169 77 q 185 93 208 93 q 230 93 247 77 q 263 62 263 38 z"},"<":{"x_min":0,"x_max":311,"ha":311,"o":"m 273 171 l 240 132 l 21 288 l 240 443 l 273 404 l 90 287 z"},"'":{"x_min":0,"x_max":164,"ha":164,"o":"m 120 688 q 117 669 115 655 q 110 618 107 591 q 104 563 100 529 q 97 494 93 455 q 92 452 82 452 q 72 452 72 455 q 72 460 67 506 q 62 552 58 585 l 45 690 q 43 699 55 697 q 55 697 64 696 q 73 695 82 695 q 92 695 97 696 q 102 696 105 697 q 109 698 111 698 q 113 698 113 698 q 122 698 120 688 z"},"=":{"x_min":0,"x_max":391,"ha":391,"o":"m 349 340 l 43 340 l 43 379 l 349 379 z m 349 242 l 43 242 l 43 281 l 349 281 z"},"a":{"x_min":0,"x_max":529,"ha":529,"o":"m 484 13 q 488 7 488 5 q 488 0 480 0 q 479 0 464 1 q 450 3 438 3 q 429 3 418 1 q 407 0 405 0 q 394 0 394 5 q 394 7 396 11 q 401 17 404 24 q 406 31 406 40 l 403 87 q 384 47 340 17 q 292 -16 238 -16 q 163 -16 111 29 q 57 76 57 150 q 57 226 116 276 q 173 325 253 325 q 292 325 327 310 q 362 295 381 273 q 381 295 356 337 q 327 388 287 420 q 237 461 185 461 q 152 461 128 447 q 102 432 102 404 q 102 389 110 378 q 118 368 132 368 q 142 368 149 375 q 156 381 156 390 q 156 396 155 402 q 153 408 151 413 q 150 417 152 417 q 153 418 158 418 q 172 417 183 405 q 194 394 194 380 q 194 357 176 342 q 158 326 134 326 q 105 326 87 345 q 68 364 68 396 q 68 438 113 462 q 152 482 207 482 q 261 482 314 448 q 367 414 399 354 q 422 313 436 251 q 445 212 453 144 q 460 76 466 51 q 468 38 475 26 q 482 16 484 13 z m 401 169 q 401 224 361 257 q 320 290 254 290 q 200 290 160 255 q 120 220 120 168 q 120 113 161 75 q 202 37 258 37 q 323 37 362 74 q 401 111 401 169 z"},"L":{"x_min":0,"x_max":577,"ha":577,"o":"m 570 153 q 570 82 520 33 q 470 -16 396 -16 q 361 -16 319 -1 q 225 30 193 30 q 158 30 136 21 q 115 12 101 -6 q 97 -10 95 -10 q 93 -10 91 -7 q 87 0 84 4 q 79 11 71 18 q 63 25 53 29 q 51 30 39 33 q 35 34 35 36 q 35 37 38 40 q 85 72 108 119 q 128 158 128 204 l 128 636 q 128 645 113 657 q 103 665 92 674 q 90 676 91 680 q 92 684 99 684 q 104 684 128 682 q 152 681 162 681 q 182 681 202 682 q 222 684 225 684 q 233 684 233 678 q 233 675 231 673 q 230 671 211 657 q 196 645 196 636 l 196 249 q 196 181 166 120 q 144 75 109 43 q 135 60 164 71 q 201 85 233 85 q 267 85 355 53 q 397 38 433 38 q 477 38 507 67 q 539 98 539 150 q 539 206 511 240 q 484 275 438 275 q 409 275 390 261 q 372 248 372 224 q 372 204 383 195 q 391 188 405 188 q 411 189 417 191 q 422 193 427 194 q 430 196 431 193 q 431 190 431 188 q 431 172 413 160 q 396 148 375 148 q 344 148 325 169 q 306 190 306 225 q 306 265 340 290 q 375 315 420 315 q 485 315 528 269 q 570 222 570 153 z"},"3":{"x_min":0,"x_max":502,"ha":502,"o":"m 444 230 q 444 131 369 60 q 289 -16 166 -16 q 105 -16 61 11 q 10 42 10 92 q 10 116 29 134 q 48 151 74 151 q 103 151 120 138 q 135 126 135 109 q 135 101 134 98 l 133 94 q 132 90 128 90 l 124 92 q 116 100 107 103 q 99 106 88 106 q 73 106 64 95 q 55 84 55 66 q 55 42 90 26 q 121 13 160 13 q 247 13 312 74 q 376 135 376 220 q 376 277 338 314 q 298 353 234 353 q 184 353 152 334 q 139 327 121 308 q 119 305 116 305 q 114 305 111 308 l 96 320 q 92 324 97 328 q 108 340 171 394 l 282 489 q 343 542 358 558 q 337 553 316 551 q 295 549 270 549 q 247 549 228 550 q 170 555 163 555 q 132 555 106 539 q 83 520 77 516 l 74 514 l 72 514 q 67 514 66 518 q 64 522 62 528 q 61 534 54 544 q 49 550 44 556 q 40 561 36 564 q 32 566 32 569 q 32 573 37 576 q 51 588 92 599 q 133 610 175 610 q 201 610 276 594 q 312 586 341 586 q 365 586 382 593 q 395 601 407 608 q 417 604 426 597 q 435 589 432 586 q 419 576 393 554 q 360 526 318 490 q 265 444 191 379 q 210 385 228 387 q 245 390 269 390 q 343 390 391 351 q 444 308 444 230 z"},";":{"x_min":0,"x_max":222,"ha":222,"o":"m 165 397 q 165 375 149 359 q 133 344 110 344 q 87 344 72 359 q 56 375 56 397 q 56 421 71 437 q 87 452 110 452 q 133 452 149 437 q 165 421 165 397 z m 173 21 q 173 -29 137 -65 q 102 -101 55 -101 q 40 -101 30 -96 q 26 -93 26 -90 q 26 -86 32 -86 q 41 -86 51 -84 q 61 -82 73 -76 q 94 -67 104 -54 q 118 -37 118 -14 q 118 -1 112 9 q 105 19 95 19 q 83 19 78 15 q 73 11 71 5 q 68 0 64 0 q 61 0 58 3 q 45 14 45 40 q 45 62 63 74 q 81 86 105 86 q 141 86 159 62 q 173 44 173 21 z"},"J":{"x_min":0,"x_max":273,"ha":273,"o":"m 211 673 q 210 671 191 657 q 176 645 176 636 l 176 229 q 176 184 185 160 q 189 147 199 139 q 202 137 202 134 q 202 132 197 130 q 192 128 185 120 q 172 105 156 73 q 129 19 103 -36 q 62 -102 11 -102 q -15 -102 -31 -91 q -46 -80 -46 -63 q -46 -49 -37 -39 q -27 -29 -14 -29 q 1 -29 10 -38 q 17 -45 17 -53 q 17 -64 18 -69 q 19 -73 25 -73 q 46 -73 75 -9 q 107 64 107 145 l 107 636 q 107 645 93 657 q 82 665 71 674 q 70 676 71 680 q 71 684 78 684 q 83 684 107 682 q 132 681 142 681 q 161 681 181 682 q 202 684 204 684 q 213 684 213 678 q 213 675 211 673 z"},"V":{"x_min":0,"x_max":634,"ha":634,"o":"m 589 591 q 589 545 565 486 q 548 441 507 370 q 471 308 435 245 q 398 182 365 115 q 340 65 321 23 q 301 -20 299 -24 q 297 -28 295 -28 q 292 -28 289 -23 q 278 -4 251 61 q 223 130 196 203 q 165 291 146 352 q 131 402 117 464 q 104 516 94 567 q 86 603 81 635 q 79 646 60 659 q 46 669 44 671 q 41 674 41 678 q 41 684 51 684 q 54 684 74 682 q 95 681 112 681 q 134 681 146 681 q 159 682 175 684 q 183 684 183 678 q 183 674 181 672 q 168 662 161 655 q 148 644 149 633 q 154 588 169 522 q 183 464 206 384 q 231 296 260 216 q 289 136 313 87 q 327 121 345 161 q 366 205 388 245 q 421 305 454 366 q 490 433 507 481 q 528 542 528 593 q 528 648 508 682 q 483 724 431 724 q 402 724 382 709 q 362 695 362 670 q 362 655 371 645 q 379 634 394 634 q 397 635 399 635 q 411 636 418 644 q 423 650 424 657 q 426 665 429 665 q 431 665 434 661 q 441 651 441 637 q 441 617 427 604 q 412 590 392 590 q 365 590 348 610 q 331 630 331 662 q 331 702 367 726 q 402 751 451 751 q 512 751 551 702 q 589 656 589 591 z"},"\"":{"x_min":0,"x_max":317,"ha":317,"o":"m 273 688 q 271 669 269 655 q 264 618 260 591 q 257 563 253 529 q 250 494 246 455 q 245 452 235 452 q 226 452 226 455 q 225 460 220 506 q 215 552 211 585 l 198 690 q 197 699 208 697 q 208 697 217 696 q 226 695 235 695 q 245 695 250 696 q 255 696 259 697 q 263 698 264 698 q 266 698 267 698 q 275 698 273 688 z m 120 688 q 117 669 115 655 q 110 618 107 591 q 104 563 100 529 q 97 494 93 455 q 92 452 82 452 q 72 452 72 455 q 72 460 67 506 q 62 552 58 585 l 45 690 q 43 699 55 697 q 55 697 64 696 q 73 695 82 695 q 92 695 97 696 q 102 696 105 697 q 109 698 111 698 q 113 698 113 698 q 122 698 120 688 z"},"7":{"x_min":0,"x_max":428,"ha":428,"o":"m 467 601 q 459 591 431 562 l 373 504 q 336 466 315 439 q 266 375 248 348 q 217 299 202 255 q 185 204 185 145 q 185 102 194 77 q 204 51 227 37 q 230 35 230 33 q 230 30 226 27 q 216 23 206 18 q 195 13 187 8 l 154 -13 l 148 -15 q 145 -15 140 -10 q 130 4 120 42 q 109 81 109 110 q 109 161 125 209 q 138 250 163 293 q 177 318 209 363 q 236 402 286 458 q 338 516 387 561 q 354 551 331 547 q 307 543 277 543 q 251 543 183 549 q 149 552 125 552 q 94 552 67 529 q 42 502 36 496 l 30 493 q 27 493 27 497 q 27 499 29 505 q 31 510 33 516 q 46 547 51 561 l 62 600 q 65 606 75 608 q 85 609 118 610 q 150 610 164 610 l 179 610 q 209 610 245 604 q 323 592 356 592 q 394 592 418 603 q 427 606 443 620 l 446 622 l 449 622 q 452 622 454 620 l 466 611 q 468 609 468 605 z"},"S":{"x_min":0,"x_max":575,"ha":575,"o":"m 538 219 q 538 116 452 48 q 371 -16 260 -16 q 158 -16 88 33 q 11 88 11 182 q 11 248 65 295 q 119 342 194 342 q 268 342 314 313 q 365 282 365 224 q 365 181 331 153 q 296 125 251 125 q 209 125 181 141 q 147 159 147 193 q 147 214 165 228 q 178 238 188 240 q 198 241 199 241 q 203 241 203 238 q 202 235 201 232 q 201 231 199 227 q 196 217 196 205 q 196 190 212 179 q 227 168 245 168 q 275 168 295 187 q 315 205 315 232 q 315 273 275 296 q 240 316 190 316 q 127 316 82 279 q 33 240 33 182 q 33 105 106 60 q 171 19 261 19 q 352 19 417 75 q 485 134 485 221 q 485 268 463 304 q 443 335 403 364 q 375 384 318 413 q 246 447 174 482 q 102 524 102 582 q 102 639 160 671 q 210 698 282 698 q 337 698 370 686 q 414 669 414 631 q 414 615 402 603 q 389 590 380 589 q 370 588 366 588 q 355 588 348 592 q 342 596 342 597 q 342 599 346 603 q 353 609 355 617 q 358 625 358 633 q 358 657 332 669 q 311 679 279 679 q 228 679 194 663 q 152 643 152 606 q 152 580 182 557 q 203 542 255 519 q 333 485 346 479 q 411 447 445 420 q 491 385 513 341 q 538 291 538 219 z"},"}":{"x_min":0,"x_max":324,"ha":324,"o":"m 303 262 q 249 257 223 227 q 193 193 193 124 l 193 18 q 193 -80 155 -113 q 135 -132 103 -140 q 71 -148 11 -148 l 11 -127 q 83 -127 105 -101 q 126 -76 126 0 l 126 71 q 126 183 157 220 q 190 264 251 274 q 221 279 197 294 q 172 309 157 330 q 126 369 126 478 l 126 549 q 126 625 105 650 q 83 676 11 676 l 11 698 q 68 698 102 690 q 136 681 155 663 q 193 628 193 532 l 193 426 q 193 353 222 321 q 247 293 303 288 z"},"Z":{"x_min":0,"x_max":604,"ha":604,"o":"m 578 125 q 578 65 530 25 q 482 -16 413 -16 q 374 -16 333 1 q 292 17 254 33 q 208 51 169 51 q 127 51 87 24 q 50 -6 41 -14 q 37 -17 34 -17 q 30 -17 29 -12 q 27 -6 27 3 q 27 27 36 62 q 44 97 58 126 q 89 194 146 252 q 180 287 266 355 q 356 428 403 474 q 446 514 477 563 q 504 606 513 638 q 484 621 458 610 q 422 597 389 597 q 353 597 316 610 q 279 623 243 636 q 207 649 174 649 q 138 649 111 627 q 85 604 85 567 q 85 542 99 525 q 114 507 135 507 q 150 507 161 516 q 171 525 171 539 q 171 543 171 545 q 169 557 162 561 q 154 565 146 565 q 141 565 141 568 q 141 570 144 573 q 148 579 158 583 q 168 588 179 588 q 201 588 215 574 q 229 560 229 536 q 229 509 203 488 q 177 467 145 467 q 105 467 82 497 q 60 526 60 574 q 60 626 116 664 q 168 698 234 698 q 269 698 303 685 q 338 672 373 659 q 408 646 443 646 q 482 646 510 666 q 523 675 537 695 q 540 699 544 699 q 546 699 549 697 q 556 693 563 689 q 567 688 567 684 q 567 681 566 679 q 563 658 541 609 q 516 555 491 521 q 460 478 397 422 q 368 396 282 328 q 211 271 187 245 q 148 204 133 186 q 110 158 97 128 q 82 96 74 55 q 104 80 130 93 q 166 110 202 110 q 248 110 296 90 q 337 71 378 53 q 425 32 463 32 q 494 32 513 48 q 536 67 536 103 q 536 127 520 144 q 503 161 478 161 q 450 161 439 147 q 433 139 433 125 q 433 120 428 120 q 426 120 423 121 q 416 126 412 136 q 407 146 407 157 q 407 187 430 206 q 453 225 484 225 q 524 225 551 195 q 578 166 578 125 z"},"x":{"x_min":0,"x_max":448,"ha":448,"o":"m 416 14 q 423 10 423 5 q 423 0 414 0 q 412 0 390 1 q 367 2 346 2 q 332 2 317 1 q 302 0 286 0 q 276 0 276 6 q 276 9 279 13 q 286 18 293 22 q 301 30 301 37 q 301 42 297 49 q 260 99 244 123 q 215 163 192 199 q 167 175 137 131 q 101 78 101 52 q 101 28 109 18 q 113 14 124 8 q 128 5 128 0 q 128 -3 124 -5 q 116 -6 110 -7 q 88 -11 62 -30 q 41 -45 27 -64 q 20 -75 13 -87 q 10 -90 7 -90 q 3 -90 3 -84 q 2 -83 2 -78 q 2 -58 17 -18 q 32 23 58 70 q 81 114 115 160 q 147 203 176 230 q 149 274 120 331 q 91 389 80 421 q 76 432 61 442 q 49 448 38 455 q 34 458 34 461 q 34 467 44 467 q 53 467 60 466 q 92 464 103 464 q 116 464 137 466 q 157 467 162 467 q 170 467 170 461 q 170 458 166 455 q 157 449 153 444 q 145 436 145 426 q 145 424 146 419 q 153 383 178 335 q 191 308 219 263 q 278 324 298 348 q 348 407 348 438 q 348 460 337 470 q 329 479 313 479 q 305 479 298 474 q 292 469 287 458 q 284 453 281 453 q 279 453 277 455 q 268 463 268 481 q 268 506 287 522 q 306 538 331 538 q 362 538 381 516 q 399 493 399 455 q 399 422 373 381 q 351 346 310 304 q 281 274 236 235 q 257 205 278 174 q 295 149 322 113 q 346 82 368 55 q 383 37 403 23 q 409 18 416 14 z"},")":{"x_min":0,"x_max":276,"ha":276,"o":"m 211 272 q 211 178 196 103 q 181 27 155 -31 q 129 -89 87 -122 q 45 -155 -14 -166 l -14 -143 q 26 -133 56 -98 q 83 -67 102 -17 q 121 34 131 107 q 141 181 141 272 q 141 366 131 438 q 122 509 102 561 q 82 612 56 643 q 26 676 -14 687 l -14 711 q 103 690 154 576 q 180 519 196 441 q 211 364 211 272 z"},"&":{"x_min":0,"x_max":639,"ha":639,"o":"m 636 89 q 637 86 637 81 q 638 76 638 71 q 638 58 635 48 q 626 20 596 4 q 569 -10 536 -10 q 498 -10 460 11 q 445 20 421 36 q 389 11 350 -2 q 312 -16 271 -16 q 172 -16 109 33 q 38 87 38 186 q 38 260 83 313 q 120 355 175 374 q 136 444 133 451 q 109 503 109 544 q 109 617 154 660 q 195 698 255 698 q 314 698 346 656 q 378 614 378 542 q 378 492 332 444 q 295 406 242 380 q 259 349 291 299 q 331 239 362 196 q 403 142 438 105 l 454 128 q 473 157 483 198 q 489 219 489 243 q 489 274 479 303 q 467 336 443 360 q 434 359 420 354 q 406 350 397 345 q 389 340 384 332 q 378 324 378 314 q 378 311 380 306 q 381 302 386 296 q 392 291 399 291 q 403 291 407 293 q 414 296 416 299 q 418 302 418 306 q 419 311 422 311 l 427 308 l 434 296 l 435 289 q 435 271 416 263 q 412 261 407 260 q 402 259 397 259 q 384 259 373 268 q 362 277 356 290 q 350 304 350 319 q 350 343 362 363 q 375 383 396 396 q 425 411 468 422 q 500 430 531 438 q 567 450 567 472 q 567 476 565 480 q 560 495 545 495 q 536 495 527 489 q 523 487 520 482 q 517 477 515 477 q 512 477 510 482 q 507 488 507 495 q 507 505 514 513 q 521 522 527 524 q 533 525 537 526 q 541 526 543 526 q 562 526 576 512 q 586 500 591 484 q 594 473 594 463 q 594 425 554 400 q 523 380 470 368 q 489 356 507 322 q 532 277 532 227 q 532 214 530 200 q 526 172 507 138 q 488 103 465 82 q 479 70 501 59 q 531 45 556 45 q 559 45 569 46 q 583 48 596 57 q 609 66 617 75 l 627 92 l 631 94 q 634 94 636 89 z m 333 532 q 334 543 334 555 q 334 600 315 632 q 292 669 250 669 q 208 669 183 636 q 160 606 160 566 q 160 561 160 557 q 160 553 162 545 q 167 520 186 478 q 206 436 228 404 q 271 427 300 461 q 328 495 333 532 z m 395 63 q 363 93 317 155 q 277 208 240 266 q 204 321 189 350 q 166 345 139 307 q 103 256 103 186 q 103 106 156 58 q 204 15 266 15 q 299 15 332 26 q 369 39 395 63 z"},"_":{"x_min":0,"x_max":488,"ha":488,"o":"m 488 -143 l 0 -143 l 0 -95 l 488 -95 z"},"v":{"x_min":0,"x_max":484,"ha":484,"o":"m 432 428 q 432 396 422 360 q 415 332 398 293 q 387 265 369 229 q 351 193 331 154 q 322 137 292 82 q 272 46 253 11 q 248 0 242 -12 q 239 -16 236 -16 q 232 -16 229 -12 q 223 -3 217 9 q 204 35 188 63 q 168 97 162 109 q 148 136 127 186 q 107 230 93 281 q 82 317 73 363 q 67 396 63 421 q 62 430 49 440 q 39 448 28 456 q 25 459 25 462 q 25 467 33 467 q 39 467 59 466 q 80 464 94 464 q 108 464 129 466 q 150 467 154 467 q 161 467 161 461 q 161 458 158 455 q 146 446 140 440 q 128 429 129 419 q 133 370 142 328 q 153 276 173 226 q 195 168 211 136 q 225 111 252 67 q 272 107 294 153 q 319 207 337 248 q 359 299 372 338 q 388 390 388 426 q 388 444 378 459 q 366 478 349 478 q 345 478 344 478 q 328 476 320 460 q 319 457 318 453 q 318 450 318 448 q 318 443 318 441 q 319 434 315 434 q 313 434 310 436 q 302 439 296 450 q 288 462 288 476 q 288 498 305 514 q 322 529 345 529 q 387 529 411 497 q 432 468 432 428 z"},"O":{"x_min":0,"x_max":664,"ha":664,"o":"m 620 346 q 620 211 539 103 q 451 -15 320 -15 q 196 -15 117 93 q 44 192 44 330 q 44 441 84 525 q 124 605 189 640 q 198 644 202 644 q 206 644 206 640 q 206 635 197 628 q 170 604 154 579 q 131 542 119 491 q 105 431 105 340 q 105 223 176 132 q 250 38 350 38 q 442 38 500 104 q 562 176 562 308 q 562 448 489 558 q 419 663 338 663 q 305 663 286 647 q 267 630 267 604 q 267 588 276 575 q 285 562 300 562 q 304 562 308 562 q 312 563 317 567 q 322 570 324 574 q 326 578 328 581 q 329 585 330 588 q 330 591 332 591 q 334 591 337 588 q 342 579 342 564 q 342 562 342 560 q 341 556 341 555 q 338 536 323 523 q 309 511 288 511 q 257 511 237 534 q 217 558 217 591 q 217 640 259 671 q 297 698 349 698 q 470 698 547 591 q 620 490 620 346 z"},"(":{"x_min":0,"x_max":276,"ha":276,"o":"m 290 -166 q 232 -156 190 -122 q 147 -89 122 -32 q 96 25 82 99 q 65 180 65 272 q 65 366 81 445 q 95 517 122 576 q 173 690 290 711 l 290 687 q 251 677 221 643 q 194 611 175 561 q 156 511 146 438 q 136 364 136 272 q 136 179 145 107 q 155 36 174 -16 q 193 -67 220 -98 q 250 -133 290 -143 z"},"C":{"x_min":0,"x_max":605,"ha":605,"o":"m 658 688 q 658 672 646 659 q 641 653 626 643 q 623 641 622 641 q 618 641 619 646 q 622 653 623 657 q 625 661 625 667 q 625 676 621 685 q 616 699 602 707 q 588 714 571 714 q 540 714 516 691 q 492 669 492 638 q 492 615 506 595 q 511 587 518 583 q 521 580 536 571 q 541 569 541 566 q 541 564 537 562 l 507 545 q 494 537 492 536 q 479 527 479 526 q 477 525 475 525 q 471 526 472 531 q 473 536 474 544 q 476 552 476 559 q 476 568 473 580 q 462 619 423 643 q 383 667 329 667 q 230 667 170 578 q 114 497 114 385 q 114 248 184 145 q 262 29 386 29 q 459 29 512 68 q 565 106 565 155 q 565 167 559 178 q 553 188 542 188 q 532 188 525 184 q 521 181 518 177 q 517 173 514 173 q 511 173 511 180 q 511 193 521 208 q 533 227 552 227 q 575 227 588 207 q 600 190 600 166 q 600 160 600 157 q 593 85 524 35 q 456 -16 363 -16 q 223 -16 131 100 q 44 210 44 362 q 44 497 124 595 q 208 698 333 698 q 413 698 467 650 q 473 689 499 720 q 531 757 578 757 q 614 757 636 738 q 658 719 658 688 z"},"W":{"x_min":0,"x_max":861,"ha":861,"o":"m 813 548 q 813 481 773 371 q 743 290 686 171 q 646 90 606 9 q 599 -7 592 -26 q 585 -44 584 -47 q 583 -50 580 -50 q 578 -50 575 -46 q 572 -42 553 1 q 527 58 486 157 q 444 257 420 319 q 397 269 375 219 q 347 158 319 98 q 286 26 273 -3 q 272 -7 265 -27 q 261 -40 258 -45 q 256 -48 253 -48 q 251 -48 250 -46 q 249 -44 247 -37 q 242 -23 237 -13 q 205 68 172 149 q 119 283 91 375 q 51 504 51 574 q 51 622 72 658 q 96 700 138 700 q 164 700 180 686 q 194 673 192 659 q 190 654 189 654 q 187 651 184 654 q 180 658 172 661 q 165 664 151 664 q 130 664 119 638 q 110 618 110 589 q 110 551 121 505 q 129 469 146 419 q 161 377 176 335 q 195 281 217 226 q 232 186 251 139 q 262 113 272 88 l 397 366 q 375 425 364 463 q 352 512 352 555 q 352 607 374 637 q 396 667 437 667 q 473 667 494 640 q 516 614 516 569 q 516 542 498 490 q 480 437 459 397 l 595 78 q 623 129 654 199 q 697 293 722 371 q 754 473 754 537 q 754 579 737 609 q 718 645 685 645 q 661 645 650 634 q 640 624 640 599 q 640 592 637 592 q 636 592 632 594 q 609 605 609 634 q 609 667 640 684 q 664 698 694 698 q 749 698 782 654 q 813 611 813 548 z m 479 563 q 479 588 470 605 q 460 626 440 626 q 421 626 412 608 q 402 591 402 567 q 402 534 414 499 q 423 471 439 440 q 456 476 465 500 q 479 539 479 563 z"},"A":{"x_min":0,"x_max":746,"ha":746,"o":"m 684 11 q 685 10 685 8 q 686 6 686 5 q 686 0 677 0 q 672 0 648 1 q 624 3 614 3 q 599 3 567 0 q 556 0 551 0 q 542 0 542 6 q 542 8 544 10 q 545 12 565 27 q 580 39 580 48 q 581 53 582 63 q 583 73 583 86 q 583 140 567 192 q 543 266 486 330 q 452 368 408 395 q 365 422 311 440 q 283 391 263 333 q 237 254 237 187 q 237 112 241 80 q 247 24 267 -21 q 279 -47 305 -67 q 318 -78 340 -89 q 346 -92 346 -96 q 346 -99 341 -101 q 327 -105 314 -110 q 301 -115 284 -123 q 267 -131 255 -140 q 247 -146 239 -152 q 235 -155 233 -155 q 229 -155 229 -147 q 229 -132 227 -113 q 226 -93 220 -51 q 211 0 204 49 q 196 98 196 142 q 196 231 219 318 q 239 394 271 450 q 261 452 249 454 q 237 455 221 455 q 193 455 163 448 q 133 442 111 427 q 81 407 81 380 q 81 352 104 348 q 105 347 109 347 q 120 347 127 352 q 135 357 136 367 q 137 376 141 376 q 144 376 146 371 q 147 366 147 357 q 147 353 146 348 q 146 343 145 338 q 138 320 123 308 q 108 296 85 296 q 83 295 80 295 q 54 295 36 315 q 19 334 19 364 q 19 415 73 448 q 109 470 154 479 q 170 481 189 483 q 208 484 228 484 q 268 484 290 479 q 361 573 447 625 q 546 684 662 684 q 678 684 678 679 q 678 677 675 674 q 659 656 654 641 q 648 621 648 566 l 648 48 q 648 39 663 27 q 683 12 684 11 z m 580 257 l 580 643 q 510 629 440 581 q 402 555 379 531 q 355 507 329 468 q 371 454 406 435 q 437 417 469 392 q 504 363 530 332 q 554 302 580 257 z"},"f":{"x_min":0,"x_max":291,"ha":291,"o":"m 293 642 q 293 618 279 601 q 265 583 242 583 q 223 583 209 593 q 194 604 194 620 q 194 637 205 646 q 207 647 208 646 q 210 645 211 640 q 212 635 215 632 q 220 626 229 626 q 232 627 233 627 q 241 628 247 634 q 252 640 252 650 q 252 663 241 670 q 231 677 217 677 q 190 677 178 655 q 166 633 166 594 l 166 465 q 182 465 198 465 q 213 466 230 467 q 237 467 237 460 l 237 443 q 237 436 230 436 q 228 436 207 437 q 185 438 166 438 l 166 22 q 166 -61 139 -117 q 119 -160 83 -187 q 64 -201 34 -213 q 30 -214 27 -212 q 24 -210 23 -205 q 22 -200 22 -193 q 20 -186 19 -181 q 16 -170 13 -163 q 10 -157 8 -151 q 6 -148 8 -146 q 10 -145 15 -146 q 22 -146 30 -147 q 60 -147 77 -120 q 104 -80 104 19 l 104 438 q 88 438 74 437 q 60 436 45 436 q 38 436 38 443 l 38 459 q 38 467 47 467 q 49 467 68 466 q 87 465 104 465 l 104 553 q 104 614 136 656 q 168 698 220 698 q 249 698 271 683 q 293 667 293 642 z"},"Q":{"x_min":0,"x_max":671,"ha":671,"o":"m 634 21 q 634 -8 611 -27 q 588 -46 558 -46 q 529 -46 510 -39 q 472 -26 435 15 q 417 3 382 -6 q 346 -15 320 -15 q 196 -15 117 93 q 44 192 44 330 q 44 441 84 525 q 124 605 189 640 q 198 644 201 644 q 205 644 205 640 q 205 635 197 628 q 170 604 154 579 q 131 542 119 491 q 105 431 105 340 q 105 271 138 199 q 167 134 209 98 q 224 117 249 131 q 284 152 326 152 q 384 152 429 111 q 456 83 468 71 q 511 108 533 156 q 562 218 562 308 q 562 448 489 558 q 419 663 338 663 q 305 663 286 647 q 267 630 267 604 q 267 588 276 575 q 285 562 300 562 q 304 562 308 562 q 312 563 317 567 q 322 570 325 575 q 328 581 328 586 q 330 591 333 591 q 335 591 339 585 q 342 578 342 564 q 342 561 341 555 q 338 536 323 523 q 309 511 288 511 q 257 511 237 534 q 217 558 217 591 q 217 640 259 671 q 297 698 349 698 q 470 698 547 591 q 620 490 620 346 q 620 254 580 169 q 543 90 486 46 q 521 8 535 -1 q 549 -11 562 -11 q 580 -11 589 0 q 597 8 597 19 q 597 27 593 34 q 589 41 583 42 q 575 42 572 42 q 567 42 567 44 q 567 45 571 50 q 580 59 594 59 q 613 59 624 46 q 634 36 634 21 z m 411 45 q 383 81 378 86 q 355 108 324 115 q 311 118 299 118 q 273 118 252 104 q 237 95 227 81 q 248 63 285 51 q 322 38 350 38 q 370 38 384 39 q 398 41 411 45 z"},"w":{"x_min":0,"x_max":654,"ha":654,"o":"m 613 437 q 613 402 596 350 q 583 311 557 250 q 539 210 517 162 q 491 104 481 82 q 462 39 448 4 l 442 -12 q 439 -16 437 -16 q 434 -16 431 -12 l 424 2 q 399 51 387 77 q 372 109 356 151 q 351 165 342 192 q 325 242 319 255 q 318 258 316 262 q 315 266 313 266 q 312 266 308 256 q 292 219 267 141 q 257 111 241 67 q 229 35 218 2 q 217 -1 215 -5 q 213 -10 212 -12 q 209 -16 207 -16 q 204 -16 202 -13 q 199 -10 197 -5 q 195 0 194 3 q 179 45 165 80 q 140 142 137 151 q 121 193 103 253 q 92 286 78 337 q 64 389 55 422 q 54 430 42 440 q 32 447 22 454 q 18 458 18 461 q 18 467 29 467 q 38 467 44 466 q 74 464 83 464 q 98 464 117 465 q 135 467 139 467 q 148 467 148 461 q 148 458 145 455 q 134 448 125 440 q 113 430 115 420 q 122 389 135 351 q 161 274 161 273 q 189 184 217 94 q 229 131 246 181 q 262 224 270 245 q 282 279 297 317 q 318 369 321 374 q 323 379 325 384 q 327 389 330 392 q 332 396 334 396 q 337 396 339 391 l 345 375 q 363 315 396 226 q 416 169 430 138 q 440 113 452 91 q 479 154 495 193 q 527 272 543 320 q 565 389 565 419 q 565 451 558 470 q 548 493 526 493 q 515 493 510 489 q 504 485 500 476 q 498 472 497 467 q 496 463 496 456 q 496 451 491 451 q 489 451 488 452 q 486 453 485 453 q 477 458 470 470 q 464 481 464 492 q 464 517 485 531 q 505 545 533 545 q 576 545 597 510 q 613 482 613 437 z"},"-":{"x_min":0,"x_max":356,"ha":356,"o":"m 311 304 q 312 298 312 292 q 312 276 307 266 q 297 241 274 229 q 251 217 216 217 q 197 217 172 223 q 117 235 101 235 q 80 235 67 226 q 58 219 54 208 q 52 202 49 202 q 46 202 44 208 q 42 214 42 223 q 42 234 45 245 q 48 255 56 266 q 66 279 83 286 q 101 294 125 294 q 147 294 184 283 q 220 272 243 272 q 267 272 283 285 q 292 292 301 306 q 303 310 306 310 q 310 310 311 304 z"},"E":{"x_min":0,"x_max":675,"ha":675,"o":"m 667 568 q 667 527 641 497 q 616 466 563 441 q 524 423 471 411 q 443 405 377 395 q 311 385 281 377 q 231 363 184 328 q 145 298 121 264 q 136 176 207 105 q 286 27 384 27 q 454 27 502 54 q 551 81 551 125 q 551 139 548 150 q 544 160 542 168 q 541 171 542 173 q 543 175 548 175 q 561 173 573 161 q 590 145 590 122 q 590 60 519 21 q 454 -16 365 -16 q 223 -16 134 83 q 44 183 44 345 q 44 488 138 592 q 234 698 372 698 q 433 698 477 675 q 525 648 525 604 q 525 582 511 566 q 497 550 473 546 q 471 545 468 545 q 464 545 462 545 q 453 545 445 547 q 438 549 433 553 q 428 555 428 558 q 428 561 433 563 q 442 570 446 575 q 454 585 456 601 q 457 603 457 604 q 457 606 457 607 q 457 634 423 650 q 395 663 358 663 q 302 663 255 640 q 208 617 172 572 q 138 531 123 477 q 108 424 108 360 q 108 347 109 332 q 109 317 111 299 q 129 324 167 357 q 217 402 262 419 q 300 434 341 441 q 364 446 419 453 q 475 459 508 466 q 562 476 590 491 q 634 514 634 551 q 634 576 619 585 q 615 588 605 588 q 600 588 597 586 q 591 582 588 582 q 586 582 586 586 q 586 587 588 595 q 589 603 600 611 q 610 619 623 619 q 644 619 655 604 q 667 588 667 568 z"},"s":{"x_min":0,"x_max":486,"ha":486,"o":"m 437 157 q 437 80 370 31 q 307 -16 221 -16 q 147 -16 99 8 q 40 38 40 95 q 40 138 72 168 q 104 198 148 198 q 194 198 223 182 q 256 163 256 128 q 256 106 240 90 q 224 73 202 73 q 181 73 172 81 q 169 83 169 85 q 169 88 176 90 q 184 93 190 100 q 195 107 195 123 q 195 137 180 146 q 165 155 147 155 q 113 155 89 139 q 65 122 65 93 q 65 52 118 29 q 161 11 221 11 q 283 11 329 39 q 384 71 384 127 q 384 183 344 209 q 319 226 249 243 q 209 252 169 261 q 125 273 104 293 q 76 318 76 364 q 76 417 131 451 q 182 482 248 482 q 308 482 344 467 q 393 447 393 405 q 393 378 367 361 q 343 345 312 345 q 282 345 262 356 q 237 370 237 395 q 237 408 246 418 q 255 428 267 432 q 271 433 272 433 q 275 433 275 428 l 274 418 q 274 407 281 400 q 290 392 310 392 q 322 392 332 400 q 341 409 341 421 q 341 443 309 452 q 286 459 248 459 q 201 459 164 438 q 122 415 122 380 q 122 349 149 331 q 167 320 259 299 q 316 286 347 273 q 390 256 411 231 q 437 202 437 157 z"},">":{"x_min":0,"x_max":311,"ha":311,"o":"m 289 288 l 70 132 l 37 171 l 221 287 l 37 404 l 70 443 z"},"l":{"x_min":0,"x_max":273,"ha":273,"o":"m 191 16 q 197 10 197 6 q 197 0 187 0 q 178 0 172 0 q 142 3 132 3 q 114 3 103 2 q 92 1 78 0 q 66 0 66 6 q 66 9 71 15 q 83 24 89 30 q 101 40 101 48 l 101 570 q 101 584 100 593 q 99 601 88 600 q 83 599 70 590 q 57 582 53 580 q 45 578 45 585 q 45 588 48 592 q 51 597 75 620 q 94 638 105 649 q 122 666 142 689 q 155 705 159 708 q 160 709 162 709 q 164 710 165 710 q 169 710 169 702 q 167 687 165 663 q 163 640 163 614 l 163 48 q 163 40 173 31 q 182 23 191 16 z"},"8":{"x_min":0,"x_max":518,"ha":518,"o":"m 497 636 l 495 623 q 482 585 431 572 q 403 564 360 564 q 336 564 272 573 q 238 577 216 577 q 175 577 147 552 q 118 527 118 494 q 118 439 182 401 q 184 400 281 358 q 316 378 352 399 q 391 425 391 453 q 391 472 383 481 q 378 488 371 490 q 364 492 364 495 q 364 498 368 501 q 378 509 395 509 q 414 509 427 493 q 439 477 439 456 q 439 414 374 377 q 343 361 312 346 q 381 324 425 281 q 476 231 476 164 q 476 84 406 33 q 341 -16 253 -16 q 163 -16 105 33 q 47 83 47 162 q 47 223 106 276 q 154 318 212 337 q 170 362 128 388 q 77 429 77 486 q 77 553 131 589 q 182 623 268 623 q 291 623 353 612 q 383 606 407 606 q 442 606 456 612 q 459 613 479 627 l 484 633 q 487 636 490 640 q 493 642 495 641 q 497 640 497 636 z m 414 164 q 414 203 376 242 q 347 272 301 297 q 268 315 248 320 q 231 317 200 300 q 157 277 130 248 q 94 208 94 164 q 94 92 144 49 q 188 11 247 11 q 313 11 362 53 q 414 97 414 164 z"},"\\":{"x_min":0,"x_max":292,"ha":292,"o":"m 358 -53 q 362 -56 362 -58 q 362 -60 358 -62 q 354 -64 344 -64 q 341 -64 338 -64 q 334 -63 333 -62 q 312 -56 291 -39 q 260 -14 235 26 q 220 50 201 90 q 186 123 163 184 q 139 245 117 305 q 104 342 80 416 q 53 500 41 534 q 18 600 0 637 q -13 666 -31 686 q -45 702 -69 720 q -72 721 -72 723 q -72 726 -65 729 q -59 731 -52 731 q -47 731 -43 729 q -21 722 2 704 q 34 679 56 641 q 73 611 98 545 q 111 511 141 422 q 167 345 179 314 q 190 284 211 223 q 232 162 244 132 q 265 81 290 30 q 300 9 319 -13 q 338 -36 358 -53 z"},"e":{"x_min":0,"x_max":491,"ha":491,"o":"m 481 104 q 469 62 420 26 q 364 -17 297 -17 q 254 -17 221 -7 q 183 3 148 29 q 135 12 124 -8 q 109 -33 109 -44 q 109 -58 117 -63 q 122 -66 133 -66 q 136 -66 140 -65 q 143 -64 146 -63 q 147 -62 149 -63 q 152 -65 150 -71 q 147 -83 139 -93 q 127 -105 111 -105 q 95 -105 84 -93 q 73 -81 73 -62 q 73 -46 84 -23 q 87 -17 126 46 q 90 83 70 126 q 49 175 49 230 q 49 333 115 408 q 182 482 281 482 q 321 482 362 463 q 385 452 408 441 q 413 439 421 438 q 429 438 438 438 l 452 438 q 458 438 458 434 q 458 431 454 429 q 446 424 437 416 q 424 405 415 394 q 368 341 305 255 q 243 170 188 84 q 216 63 246 52 q 281 39 319 39 q 372 39 406 59 q 431 74 462 111 q 465 116 469 121 q 473 126 478 125 q 484 124 484 116 q 484 110 481 104 z m 348 392 q 348 420 316 437 q 290 450 253 450 q 184 450 139 391 q 97 335 97 259 q 97 213 119 168 q 137 129 165 103 q 198 152 217 179 q 247 223 268 253 q 294 291 321 329 q 348 370 348 392 z"},"b":{"x_min":0,"x_max":542,"ha":542,"o":"m 500 264 q 500 147 438 68 q 373 -16 271 -16 q 230 -16 198 0 q 165 16 144 45 q 139 27 127 11 q 118 -3 108 -11 q 104 -14 102 -14 q 101 -14 97 -10 q 93 -6 88 0 q 81 9 78 13 l 55 37 q 52 40 52 42 q 52 45 57 48 q 72 54 79 64 q 93 83 93 120 l 93 570 q 93 584 92 593 q 91 601 80 600 q 74 599 61 590 q 49 582 45 580 q 42 579 39 580 q 37 581 37 584 q 37 588 40 593 q 44 597 60 612 q 86 637 98 649 q 116 667 135 689 q 149 706 152 708 q 155 710 157 710 q 161 710 161 702 q 158 670 157 666 q 155 639 155 614 l 155 379 q 180 419 217 447 q 263 482 312 482 q 397 482 448 423 q 500 363 500 264 z m 436 249 q 436 324 399 376 q 359 432 295 432 q 234 432 195 387 q 155 343 155 276 l 155 124 q 155 70 187 41 q 216 13 265 13 q 342 13 391 88 q 436 157 436 249 z"},"%":{"x_min":0,"x_max":801,"ha":801,"o":"m 755 181 q 755 105 712 46 q 667 -16 606 -16 q 547 -16 512 32 q 477 79 477 160 q 477 206 495 251 q 510 289 531 311 q 537 316 539 313 q 542 312 539 305 q 534 292 529 264 q 521 225 521 189 q 521 113 548 66 q 574 20 617 20 q 657 20 681 52 q 708 90 708 163 q 708 238 679 290 q 650 342 613 342 q 609 342 606 342 q 595 342 587 338 q 579 333 577 325 q 576 317 581 313 q 586 309 593 309 q 599 309 604 316 q 604 319 605 320 q 607 321 610 315 q 611 313 611 310 q 611 307 610 301 q 610 292 602 284 q 594 277 584 277 q 569 277 560 289 q 551 301 551 318 q 551 339 571 353 q 591 367 619 367 q 676 367 716 313 q 755 259 755 181 z m 689 612 q 682 611 673 610 q 665 608 654 603 q 638 594 618 572 q 601 554 582 529 q 560 500 521 444 q 508 427 455 351 q 418 298 390 260 q 344 198 311 154 q 272 104 248 74 q 219 39 204 25 q 185 8 161 -7 q 142 -19 127 -25 q 116 -30 107 -33 q 98 -35 89 -36 q 82 -36 76 -33 q 71 -30 71 -26 q 71 -24 75 -21 q 99 -12 124 5 q 150 22 165 40 q 199 78 236 125 q 265 163 294 205 q 335 261 351 282 q 361 296 408 361 q 433 396 469 444 q 500 486 524 519 q 543 542 566 566 q 573 573 583 583 q 548 563 508 555 q 468 546 417 546 q 334 546 281 570 q 323 521 323 436 q 323 360 280 301 q 236 239 175 239 q 115 239 80 287 q 45 334 45 415 q 45 461 63 506 q 79 544 100 565 q 105 571 107 568 q 110 566 107 560 q 103 547 97 519 q 90 479 90 444 q 90 368 116 321 q 143 274 186 274 q 226 274 249 307 q 276 345 276 418 q 276 493 249 543 q 221 592 182 597 q 179 597 174 597 q 162 597 154 593 q 146 589 146 580 q 144 572 149 568 q 155 563 161 563 q 166 563 168 565 q 169 566 171 570 q 174 574 175 574 q 176 574 179 570 q 180 568 180 564 q 180 562 179 556 q 179 546 171 539 q 163 532 152 532 q 138 532 128 544 q 119 556 119 573 q 119 594 139 608 q 160 622 188 622 q 201 622 211 619 q 222 617 236 610 q 274 593 316 582 q 371 567 419 567 q 471 567 516 578 q 561 589 598 608 q 607 613 619 618 q 631 622 643 624 q 655 626 669 626 q 684 626 688 624 q 691 621 691 616 q 691 613 689 612 z"},"m":{"x_min":0,"x_max":747,"ha":747,"o":"m 672 302 q 672 238 639 166 q 608 98 557 39 q 558 39 562 39 q 565 39 572 39 q 587 39 601 40 q 614 42 627 51 q 635 58 644 64 q 646 67 649 65 q 652 63 651 59 q 650 49 649 39 q 647 30 647 25 q 647 15 648 8 q 649 0 650 -9 q 651 -17 647 -17 q 644 -17 640 -14 q 630 -7 619 -3 q 608 0 598 2 q 589 3 568 3 q 554 3 545 3 q 537 2 523 0 q 521 0 520 0 q 518 0 517 0 q 507 0 507 6 q 507 9 511 15 q 535 52 553 86 q 577 131 590 169 q 605 216 605 254 q 605 334 583 378 q 555 431 497 431 q 473 431 452 421 q 430 412 413 392 q 422 368 426 333 q 430 299 430 261 q 430 213 407 149 q 390 99 363 50 q 342 11 333 2 q 332 0 327 0 q 319 0 317 3 q 316 5 317 8 q 320 15 320 17 q 363 105 363 253 q 363 324 336 374 q 306 428 259 428 q 227 428 198 401 q 174 378 163 348 l 163 48 q 163 40 174 30 q 183 23 192 16 q 198 10 198 6 q 198 0 188 0 q 182 0 159 1 q 136 3 132 3 q 114 3 103 2 q 92 1 78 0 q 67 0 67 5 q 67 9 72 15 q 84 24 90 30 q 101 40 101 48 l 101 337 q 101 378 75 404 q 65 414 37 430 q 33 432 33 436 q 33 438 36 440 q 44 446 59 461 q 66 468 70 473 q 74 477 77 481 q 80 484 83 484 q 85 484 88 481 q 106 465 125 441 q 151 407 155 383 q 172 418 194 441 q 233 482 284 482 q 326 482 359 459 q 381 443 403 412 q 423 441 448 459 q 479 482 516 482 q 600 482 641 417 q 672 369 672 302 z"},"#":{"x_min":0,"x_max":651,"ha":651,"o":"m 633 419 q 639 421 639 416 q 639 412 635 405 q 631 397 627 393 q 608 378 585 372 q 555 363 507 363 l 462 362 l 421 242 q 429 242 441 241 q 453 241 463 241 l 479 241 q 514 241 531 243 q 548 245 576 254 q 583 256 583 250 q 583 247 578 240 q 574 232 570 228 q 552 213 528 207 q 499 198 450 198 l 405 197 q 397 176 393 163 q 378 124 363 87 q 344 40 330 18 q 315 -3 297 -15 q 291 -17 286 -19 q 280 -20 275 -20 q 268 -20 268 -16 l 270 -12 q 288 14 300 42 q 308 61 325 108 q 334 134 346 171 q 350 182 354 197 l 232 197 q 225 176 220 163 q 206 123 191 87 q 172 40 158 18 q 143 -3 125 -15 q 119 -17 114 -19 q 108 -20 103 -20 q 96 -20 96 -16 l 98 -12 q 116 14 128 42 q 136 61 153 108 q 163 134 174 171 q 178 182 183 197 q 174 198 162 198 q 150 198 141 198 l 95 198 q 64 197 27 186 q 21 184 21 189 q 21 192 25 200 q 29 208 33 212 q 52 227 75 233 q 105 241 153 241 l 197 242 l 241 362 q 233 363 221 363 q 209 363 199 363 l 154 363 q 123 362 86 351 q 80 349 80 354 q 80 357 84 365 q 88 373 92 377 q 110 392 134 398 q 164 406 212 406 l 256 407 q 263 428 268 442 q 283 482 297 518 q 316 564 331 586 q 345 608 363 619 q 374 624 385 624 q 393 624 393 621 l 391 616 q 373 590 360 562 q 352 543 335 496 q 326 470 314 433 q 311 423 306 407 l 428 407 q 435 428 440 442 q 455 482 469 518 q 488 564 502 586 q 517 608 535 619 q 546 624 557 624 q 565 624 565 621 l 562 616 q 544 590 532 562 q 524 543 507 496 q 498 470 486 433 q 482 423 478 407 q 486 407 498 406 q 510 406 520 406 l 536 406 q 571 406 588 408 q 604 410 633 419 z m 412 362 l 291 362 l 248 242 l 369 242 z"},",":{"x_min":0,"x_max":222,"ha":222,"o":"m 173 21 q 173 -29 137 -65 q 102 -101 55 -101 q 39 -101 30 -96 q 26 -93 26 -90 q 26 -86 32 -86 q 41 -86 51 -84 q 61 -82 73 -76 q 94 -67 104 -54 q 118 -37 118 -14 q 118 -1 112 9 q 105 19 95 19 q 83 19 78 15 q 73 11 71 5 q 68 0 64 0 q 61 0 58 3 q 45 16 45 40 q 45 62 63 74 q 81 86 105 86 q 141 86 159 62 q 173 44 173 21 z"},"n":{"x_min":0,"x_max":549,"ha":549,"o":"m 474 300 q 474 228 448 161 q 423 95 373 39 q 375 39 378 39 q 382 39 388 39 q 403 39 417 40 q 430 42 442 50 q 455 61 459 63 q 460 64 462 65 q 463 65 464 65 q 469 65 467 57 q 466 49 465 39 q 464 29 464 25 q 464 18 464 10 q 465 2 466 -7 q 468 -17 462 -17 q 459 -17 457 -15 q 442 -6 437 -4 q 425 0 415 2 q 405 3 384 3 q 370 3 362 3 q 354 2 340 0 q 326 -2 326 9 q 326 12 327 15 q 354 56 368 83 q 391 125 402 162 q 416 207 416 253 q 416 330 382 377 q 346 428 285 428 q 244 428 211 405 q 182 384 163 348 l 163 48 q 163 39 174 30 q 183 22 192 15 q 198 9 198 5 q 198 0 189 0 q 187 0 167 1 q 148 3 132 3 q 113 3 102 2 q 91 1 77 0 q 65 0 65 5 q 65 9 70 14 q 74 19 84 26 q 101 39 101 48 l 101 337 q 101 378 76 404 q 65 416 38 430 q 34 432 34 435 q 34 438 37 441 q 43 447 48 451 q 52 455 59 461 q 66 468 70 473 q 74 477 77 481 q 79 484 83 484 q 85 484 87 482 q 104 468 124 443 q 151 408 155 383 q 177 418 208 444 q 253 482 301 482 q 389 482 436 417 q 474 364 474 300 z"},"h":{"x_min":0,"x_max":543,"ha":543,"o":"m 469 300 q 469 228 443 161 q 418 95 368 39 q 370 39 373 39 q 377 39 383 39 q 398 39 412 40 q 425 42 438 50 q 450 61 453 63 q 457 65 459 65 q 463 65 463 59 q 461 49 460 39 q 459 30 459 25 q 459 16 460 4 q 462 -7 462 -10 q 462 -17 458 -17 q 456 -17 452 -15 q 441 -7 431 -3 q 421 0 411 2 q 400 3 379 3 q 365 3 357 3 q 349 2 335 0 q 329 -1 326 -1 q 321 -1 319 1 q 317 4 319 7 q 320 11 322 15 q 349 56 363 83 q 386 125 397 162 q 411 207 411 253 q 411 329 377 377 q 341 428 280 428 q 240 428 207 404 q 178 383 158 348 l 158 48 q 158 40 168 31 q 177 23 187 16 q 192 10 192 6 q 192 0 182 0 q 173 0 167 0 q 137 3 127 3 q 109 3 98 2 q 87 1 73 0 q 62 0 62 6 q 62 9 66 15 q 79 24 84 30 q 96 40 96 48 l 96 570 q 96 584 95 593 q 94 601 83 600 q 78 599 65 590 q 52 582 48 580 q 41 578 41 585 q 41 588 43 592 q 46 597 70 620 q 89 638 101 649 q 117 666 137 689 q 150 705 154 708 q 155 709 157 709 q 159 710 160 710 q 164 710 164 702 q 162 687 160 663 q 158 640 158 614 l 158 390 q 180 425 207 447 q 249 482 296 482 q 384 482 431 417 q 469 364 469 300 z"},"z":{"x_min":0,"x_max":473,"ha":473,"o":"m 428 101 q 428 54 388 22 q 348 -9 296 -9 q 271 -9 203 13 q 171 23 145 23 q 119 23 99 17 q 79 10 57 -4 q 54 -5 52 -5 q 49 -5 48 -3 l 42 4 q 40 6 40 10 q 40 11 41 14 q 46 21 51 30 q 56 39 59 45 q 74 78 90 113 q 105 147 118 171 q 134 199 156 234 q 199 299 234 340 q 269 381 326 434 q 309 436 287 436 q 247 436 209 427 q 172 419 142 405 q 111 392 82 371 q 71 363 61 355 q 57 353 55 353 q 53 353 52 355 q 53 359 54 361 q 57 369 66 386 q 82 412 87 423 q 95 439 107 466 q 115 482 117 485 q 119 487 120 487 q 122 488 123 488 q 125 488 129 484 q 135 474 139 471 q 150 463 174 463 l 415 463 q 425 463 425 458 q 425 456 421 452 q 380 415 374 408 q 348 383 316 350 q 282 314 260 286 q 212 225 175 163 q 137 99 119 52 q 134 61 146 65 q 162 70 182 70 q 206 70 236 60 q 302 36 323 36 q 359 36 379 50 q 399 63 399 88 q 399 102 391 112 q 382 123 369 123 q 359 123 353 118 q 346 113 343 106 q 340 99 340 89 q 340 85 337 84 q 335 83 332 85 q 324 89 318 100 q 312 111 312 125 q 312 146 329 159 q 346 173 368 173 q 395 173 411 151 q 428 129 428 101 z"},"B":{"x_min":0,"x_max":690,"ha":690,"o":"m 626 223 q 626 83 516 -9 q 409 -99 251 -99 q 160 -99 95 -59 q 21 -13 21 63 q 21 102 39 132 q 58 162 89 162 q 111 162 124 150 q 136 139 136 121 q 136 105 133 97 q 130 89 124 82 q 121 78 119 78 q 117 78 114 86 q 111 94 106 100 q 99 107 88 107 q 72 107 64 92 q 56 76 56 56 q 56 -4 115 -37 q 166 -65 239 -65 q 369 -65 458 15 q 554 99 554 232 q 554 275 536 312 q 518 348 488 368 q 469 343 439 325 q 404 303 372 303 q 336 303 318 316 q 303 328 303 349 q 303 374 330 393 q 356 412 391 417 q 410 419 425 419 q 447 419 464 415 q 474 437 480 459 q 486 481 486 506 q 486 582 419 626 q 359 665 275 665 q 198 665 136 627 q 75 590 68 536 q 67 527 67 523 q 67 506 74 497 q 81 488 93 488 q 104 488 111 492 q 114 494 119 499 q 121 502 123 502 q 124 501 124 499 q 127 482 106 467 q 92 456 72 456 q 54 456 41 472 q 25 490 25 518 q 25 587 103 642 q 183 698 294 698 q 399 698 471 657 q 557 608 557 516 q 557 482 544 453 q 536 432 513 400 q 551 383 585 336 q 626 281 626 223 z m 288 11 q 289 10 290 8 q 290 6 290 5 q 290 0 281 0 q 276 0 252 1 q 228 3 219 3 q 203 3 172 0 q 160 0 155 0 q 147 0 147 6 q 147 8 148 10 q 150 12 169 27 q 185 39 185 48 l 185 497 q 185 512 175 519 q 164 523 160 525 q 156 527 156 530 q 156 533 160 535 q 164 539 175 545 q 211 565 218 569 q 229 577 257 596 q 277 611 283 612 q 289 615 289 609 q 289 608 287 605 q 269 575 262 547 q 253 512 253 472 l 253 48 q 253 39 268 27 q 287 12 288 11 z m 448 385 q 429 391 405 391 q 397 391 386 390 q 374 389 358 380 q 338 370 338 354 q 338 341 353 336 q 362 333 370 333 q 392 333 415 348 q 438 364 448 385 z"},"K":{"x_min":0,"x_max":589,"ha":589,"o":"m 652 -67 q 652 -82 642 -92 q 632 -102 613 -102 q 546 -102 494 -47 q 454 -5 426 68 q 411 108 402 152 q 401 161 391 230 q 384 277 375 309 q 367 340 348 370 q 334 391 312 416 q 271 402 227 374 q 191 350 166 324 l 166 48 q 166 39 181 27 q 200 12 201 11 q 202 10 203 8 q 203 6 203 5 q 203 0 194 0 q 189 0 165 1 q 141 3 132 3 q 116 3 85 0 q 73 0 68 0 q 60 0 60 6 q 60 8 62 10 q 63 12 83 27 q 98 39 98 48 l 98 636 q 98 645 83 657 q 72 665 62 674 q 60 676 61 680 q 62 684 68 684 q 73 684 98 682 q 122 681 132 681 q 151 681 172 682 q 192 684 194 684 q 203 684 203 678 q 203 675 201 673 q 200 671 181 657 q 166 645 166 636 l 166 376 q 185 391 203 403 q 227 419 249 430 q 327 466 404 503 q 444 527 462 548 q 486 576 486 610 q 486 634 476 646 q 465 658 446 658 q 438 658 430 651 q 426 648 421 644 q 418 641 415 641 q 412 641 411 646 q 409 665 425 686 q 446 714 481 714 q 515 714 535 687 q 556 660 556 623 q 556 582 537 550 q 521 522 483 495 q 457 476 417 458 q 387 446 350 434 q 383 401 402 376 q 425 347 445 308 q 468 265 479 204 q 488 131 497 60 q 509 4 534 -32 q 563 -75 603 -75 q 606 -75 604 -70 q 600 -63 601 -59 q 602 -51 608 -47 q 615 -42 623 -41 q 634 -41 643 -49 q 652 -56 652 -67 z"},"R":{"x_min":0,"x_max":683,"ha":683,"o":"m 712 -74 q 712 -95 689 -107 q 670 -118 644 -118 q 583 -118 534 -87 q 489 -60 457 -9 q 440 18 429 59 q 425 71 412 132 q 403 175 393 200 q 377 196 362 193 q 347 190 332 190 q 299 190 279 201 q 255 214 255 239 q 255 262 278 275 q 298 286 326 286 q 352 286 376 276 q 400 265 415 244 q 463 269 497 321 q 534 378 534 442 q 534 537 469 601 q 404 664 303 664 q 249 664 220 660 q 175 653 132 631 q 101 615 78 592 q 51 564 51 539 q 50 533 50 531 q 50 518 56 507 q 62 497 74 497 q 84 497 90 502 q 96 508 100 522 q 101 528 104 528 q 107 528 108 524 q 116 515 116 498 q 116 479 102 465 q 87 451 66 451 q 42 451 28 470 q 13 488 13 515 q 13 557 43 594 q 67 623 109 646 q 164 677 221 689 q 266 698 334 698 q 449 698 530 633 q 613 565 613 464 q 613 379 559 309 q 510 245 437 215 q 454 192 470 161 q 485 130 501 89 q 525 27 535 6 q 557 -41 580 -66 q 608 -97 642 -97 q 654 -97 665 -91 q 675 -86 677 -75 q 677 -66 676 -62 q 674 -58 671 -54 q 668 -51 668 -49 q 668 -46 672 -45 q 683 -43 697 -51 q 712 -60 712 -74 z m 257 11 q 258 10 258 8 q 259 6 259 5 q 259 0 250 0 q 245 0 221 1 q 197 3 188 3 q 172 3 141 0 q 129 0 124 0 q 116 0 116 6 q 116 8 117 10 q 119 12 138 27 q 153 39 153 48 l 153 503 q 153 518 145 525 q 144 526 129 532 q 124 534 124 537 q 124 540 130 545 q 144 553 155 559 q 164 563 180 574 q 196 584 224 606 q 237 617 240 618 q 245 620 247 617 q 249 615 247 610 q 235 588 228 572 q 222 555 222 540 l 222 48 q 222 39 236 27 q 256 12 257 11 z m 380 229 q 374 243 358 252 q 342 262 324 262 q 311 262 300 256 q 289 250 289 239 q 289 226 304 220 q 315 216 333 216 q 344 216 358 219 q 371 223 380 229 z"},"T":{"x_min":0,"x_max":533,"ha":533,"o":"m 566 712 q 566 675 516 646 q 465 616 404 616 q 382 616 365 618 q 349 621 322 626 l 322 48 q 322 39 337 27 q 356 12 357 11 q 358 10 359 8 q 359 6 359 5 q 359 0 351 0 q 346 0 322 1 q 297 3 288 3 q 272 3 241 0 q 229 0 225 0 q 216 0 216 6 q 216 8 218 10 q 219 12 239 27 q 254 39 254 48 l 254 636 q 220 641 199 644 q 161 649 125 649 q 84 649 65 639 q 47 628 47 604 q 47 595 53 588 q 59 582 64 581 q 70 580 76 580 q 84 580 88 581 q 93 583 96 585 q 100 587 102 585 q 104 583 103 578 q 100 565 90 555 q 77 541 56 541 q 36 541 24 555 q 12 569 12 591 q 12 637 75 668 q 138 699 217 699 q 259 699 297 690 q 335 682 375 673 q 415 664 458 664 q 493 664 511 673 q 530 683 530 701 q 530 713 523 717 q 515 720 503 720 q 496 720 496 723 q 496 725 497 728 q 500 736 508 742 q 518 749 529 749 q 547 749 557 740 q 566 730 566 712 z"},"P":{"x_min":0,"x_max":670,"ha":670,"o":"m 611 449 q 611 312 531 205 q 447 94 332 94 q 292 94 263 115 q 232 139 232 175 q 232 198 246 216 q 260 233 281 233 q 292 233 302 231 q 312 228 315 223 q 319 218 313 216 q 297 208 293 202 q 287 191 287 173 q 287 148 309 134 q 328 122 354 122 q 428 122 480 213 q 531 301 531 421 q 531 519 487 590 q 439 669 360 669 q 299 669 253 632 q 204 594 204 536 l 204 47 q 204 -43 169 -101 q 135 -159 87 -159 q 64 -159 49 -149 q 33 -140 33 -121 q 32 -109 36 -101 q 40 -92 47 -87 q 50 -84 53 -84 q 57 -84 56 -90 q 54 -98 55 -104 q 57 -115 62 -120 q 69 -127 83 -127 q 86 -127 89 -127 q 114 -124 125 -94 q 136 -63 136 -11 l 136 591 q 124 587 110 586 q 95 584 75 584 q 56 584 41 597 q 25 610 25 629 q 25 662 57 668 q 62 669 64 669 q 72 669 75 666 q 80 663 80 660 q 80 658 73 655 q 65 651 65 639 q 65 636 65 634 q 66 632 66 632 q 70 623 79 620 q 88 617 102 617 q 107 617 110 617 q 126 617 172 638 q 231 666 264 677 q 326 698 379 698 q 477 698 545 624 q 611 550 611 449 z"},"|":{"x_min":0,"x_max":293,"ha":293,"o":"m 174 -230 l 117 -230 l 117 746 l 174 746 z"},"t":{"x_min":0,"x_max":291,"ha":291,"o":"m 237 443 q 237 436 230 436 q 228 436 207 437 q 185 438 166 438 l 166 114 q 166 80 186 55 q 191 48 214 29 q 218 26 218 22 q 218 20 214 17 q 210 15 205 12 q 199 7 195 4 q 182 -8 178 -14 q 174 -18 170 -18 q 167 -18 163 -16 q 142 -4 126 24 q 104 64 104 119 l 104 438 q 88 438 74 437 q 60 436 45 436 q 38 436 38 443 l 38 459 q 38 467 47 467 q 49 467 68 466 q 87 465 104 465 l 104 502 q 104 530 91 534 q 83 535 80 535 q 73 535 73 542 q 73 545 76 548 q 87 557 98 568 q 109 578 123 592 q 139 608 147 619 q 156 629 164 640 q 166 642 168 642 q 172 642 172 635 q 170 622 169 609 q 166 579 166 546 l 166 465 q 182 465 198 465 q 213 466 230 467 q 237 467 237 460 z"},"M":{"x_min":0,"x_max":770,"ha":770,"o":"m 735 14 q 741 9 741 5 q 741 0 729 0 q 720 0 713 0 q 679 3 669 3 q 650 3 638 2 q 627 1 612 0 q 602 0 602 5 q 602 9 605 13 q 618 23 624 29 q 635 39 634 48 l 560 600 l 402 423 q 429 395 447 359 q 467 318 467 283 q 467 236 441 201 q 414 163 371 163 q 329 163 302 200 q 277 234 277 280 q 277 313 294 348 q 308 375 327 396 q 271 460 237 506 q 204 552 195 576 l 127 48 q 126 39 139 29 q 150 21 161 13 q 165 9 165 5 q 165 0 156 0 q 152 0 129 1 q 106 3 97 3 q 76 3 64 2 q 51 1 35 0 q 24 0 24 5 q 24 9 30 15 q 40 22 49 29 q 62 40 62 48 l 146 636 q 146 645 133 656 q 122 664 111 672 q 108 675 108 678 q 108 684 117 684 q 121 684 141 682 q 162 681 180 681 q 200 681 212 681 q 224 682 240 684 q 251 684 251 678 q 251 675 248 672 q 236 662 229 657 q 216 646 216 637 q 216 636 217 633 q 224 612 265 565 q 297 529 339 485 q 377 447 378 447 l 538 626 q 546 634 546 641 q 546 646 541 652 q 539 655 532 661 q 525 666 518 672 q 514 676 514 679 q 514 684 524 684 q 534 684 541 683 q 575 681 585 681 q 600 681 619 682 q 639 684 643 684 q 656 684 656 677 q 656 674 652 671 q 642 664 637 660 q 618 646 619 636 l 698 48 q 699 40 713 29 q 724 21 735 14 z m 415 275 q 415 301 394 330 q 379 351 355 369 q 336 352 325 333 q 311 308 311 282 q 311 250 323 228 q 338 201 365 201 q 389 201 403 225 q 415 246 415 275 z"},"g":{"x_min":0,"x_max":536,"ha":536,"o":"m 500 -46 q 500 -125 410 -173 q 331 -215 225 -215 q 147 -215 90 -184 q 26 -149 26 -96 q 26 -63 45 -44 q 64 -24 94 -24 q 122 -24 138 -37 q 155 -49 158 -70 q 159 -75 159 -78 q 159 -88 153 -97 q 150 -100 148 -100 q 146 -100 145 -97 q 139 -83 128 -76 q 117 -69 102 -69 q 87 -69 78 -81 q 68 -93 68 -107 q 68 -146 119 -169 q 163 -188 226 -188 q 302 -188 362 -148 q 427 -104 427 -41 q 427 15 376 50 q 330 82 266 82 q 207 82 168 63 q 147 54 129 35 q 125 31 119 36 q 109 42 103 47 q 96 52 92 57 q 88 61 93 65 q 93 66 119 83 q 128 88 142 99 q 168 118 183 134 q 194 146 202 160 q 147 170 102 209 q 44 257 44 322 q 44 394 107 440 q 166 482 246 482 q 290 482 319 476 q 349 470 382 452 q 392 463 397 475 q 405 491 405 509 q 405 523 398 531 q 389 542 373 540 q 365 540 358 536 q 356 535 351 529 q 348 527 347 528 q 345 529 346 533 q 348 550 356 563 q 369 583 390 583 q 418 583 433 564 q 445 547 445 518 q 445 495 432 470 q 421 449 407 438 q 441 413 458 383 q 475 353 475 312 q 475 240 411 195 q 353 154 268 154 q 260 154 250 155 q 241 156 235 156 q 227 142 207 123 q 187 103 173 94 q 198 102 225 105 q 252 108 281 108 q 365 108 426 74 q 500 31 500 -46 z m 408 312 q 408 343 400 366 q 393 388 373 410 q 362 403 350 399 q 339 396 324 396 q 296 396 281 411 q 269 423 269 437 q 269 442 271 442 q 272 442 274 439 q 282 431 286 428 q 298 420 314 420 q 326 420 336 423 q 346 426 354 431 q 340 444 313 455 q 287 465 260 465 q 197 465 151 425 q 105 384 105 324 q 105 271 133 233 q 161 194 211 181 q 214 190 214 199 q 214 213 204 229 q 201 235 208 238 q 215 241 220 242 q 226 244 236 249 q 246 253 253 258 q 260 262 269 268 q 271 271 273 269 q 275 267 275 263 q 275 251 265 224 q 255 197 246 178 q 255 176 264 176 q 316 176 361 216 q 408 258 408 312 z"},"j":{"x_min":0,"x_max":254,"ha":254,"o":"m 176 605 q 176 588 163 576 q 150 564 132 564 q 114 564 102 577 q 90 590 90 607 q 90 625 103 637 q 116 649 134 649 q 151 649 164 636 q 176 623 176 605 z m 175 -55 q 178 -58 174 -62 q 170 -64 166 -69 q 161 -74 156 -81 q 131 -125 106 -168 q 76 -215 45 -215 q 30 -215 20 -206 q 10 -198 10 -184 q 10 -174 16 -167 q 22 -159 32 -159 q 44 -159 49 -167 q 53 -174 52 -180 q 51 -182 51 -185 q 51 -189 55 -189 q 56 -189 60 -188 q 73 -184 83 -162 q 96 -131 96 -79 l 96 376 q 96 400 84 409 q 69 414 63 416 q 57 418 57 422 q 57 425 62 428 q 66 432 78 438 q 94 446 104 452 q 126 466 139 476 q 152 485 156 488 q 159 490 161 490 q 167 490 165 481 q 163 471 160 446 q 158 421 158 387 l 158 -1 q 158 -23 163 -36 q 166 -45 175 -55 z"},"i":{"x_min":0,"x_max":273,"ha":273,"o":"m 181 605 q 181 588 168 576 q 155 564 137 564 q 119 564 107 577 q 95 590 95 607 q 95 625 108 637 q 121 649 139 649 q 156 649 168 636 q 181 623 181 605 z m 191 16 q 197 10 197 6 q 197 0 187 0 q 178 0 172 0 q 142 3 132 3 q 114 3 103 2 q 92 1 78 0 q 66 0 66 6 q 66 9 71 15 q 83 24 89 30 q 101 40 101 48 l 101 376 q 101 400 89 409 q 74 414 68 416 q 62 418 62 422 q 62 425 67 428 q 71 432 83 438 q 99 446 108 452 q 131 466 144 476 q 157 485 161 488 q 164 490 166 490 q 172 490 170 481 q 167 471 165 446 q 163 421 163 387 l 163 48 q 163 40 173 31 q 182 23 191 16 z"},"y":{"x_min":0,"x_max":552,"ha":552,"o":"m 478 453 q 466 443 459 438 q 447 427 447 419 l 447 26 q 447 -82 387 -150 q 329 -215 243 -215 q 205 -215 182 -205 q 151 -192 151 -164 q 151 -143 174 -130 q 196 -117 214 -119 q 221 -119 221 -125 q 221 -126 219 -130 q 217 -133 215 -136 q 212 -142 212 -147 q 212 -151 214 -155 q 217 -168 230 -176 q 243 -184 259 -184 q 318 -184 353 -130 q 385 -82 385 -6 l 385 81 q 369 47 335 20 q 293 -15 245 -15 q 156 -15 107 44 q 65 96 65 174 q 65 219 77 258 q 86 291 104 326 q 106 329 139 386 q 141 391 132 397 q 126 401 109 408 q 101 413 92 417 q 88 418 88 422 q 88 425 96 427 q 105 429 114 431 q 129 435 147 441 q 165 448 180 456 q 195 464 210 473 q 213 474 215 474 q 221 474 221 469 q 221 467 219 464 q 217 460 211 452 q 207 446 201 438 q 164 386 144 336 q 121 276 121 214 q 121 136 157 85 q 193 35 253 35 q 295 35 332 59 q 368 83 385 120 l 385 419 q 385 428 374 438 q 364 446 354 454 q 351 458 351 461 q 351 467 359 467 q 362 467 381 465 q 400 464 416 464 q 435 464 446 465 q 457 465 472 467 q 481 467 481 461 q 481 457 478 453 z"},"@":{"x_min":0,"x_max":963,"ha":963,"o":"m 910 340 q 910 284 906 250 q 899 189 879 150 q 858 110 826 87 q 793 63 758 63 q 726 63 702 74 q 671 87 652 116 q 642 133 638 144 q 635 155 635 168 q 618 132 579 105 q 535 75 486 75 q 418 75 372 115 q 323 157 323 225 q 323 292 376 337 q 428 382 500 382 q 535 382 566 369 q 598 355 615 336 q 613 355 591 393 q 564 438 530 467 q 485 504 438 504 q 409 504 388 492 q 363 478 363 453 q 363 440 371 430 q 378 421 391 421 q 400 421 406 427 q 413 432 413 440 q 413 447 412 452 q 411 456 408 461 q 407 464 410 465 q 413 467 417 466 q 429 463 438 454 q 447 444 447 432 q 447 411 431 397 q 414 383 393 383 q 367 383 351 400 q 334 418 334 446 q 334 484 374 505 q 409 523 459 523 q 507 523 555 492 q 602 461 632 408 q 652 371 664 316 q 671 283 678 223 q 686 163 691 138 q 696 119 715 104 q 734 90 754 90 q 781 90 806 108 q 832 128 852 168 q 863 190 867 234 q 872 277 872 338 q 872 398 844 460 q 816 522 771 565 q 721 614 656 640 q 590 666 522 666 q 438 666 380 646 q 327 628 273 586 q 207 533 170 455 q 134 378 134 291 q 134 211 151 147 q 167 92 193 51 q 214 20 245 -9 q 295 -53 366 -76 q 433 -97 517 -97 q 592 -97 664 -73 q 736 -48 803 0 l 822 -22 q 680 -128 510 -128 q 414 -128 345 -109 q 270 -89 216 -44 q 174 -9 147 25 q 111 73 92 132 q 69 204 69 295 q 69 385 115 473 q 163 564 245 622 q 352 698 522 698 q 601 698 674 670 q 747 643 799 592 q 846 547 878 472 q 910 397 910 340 z m 631 241 q 631 292 595 321 q 560 351 501 351 q 453 351 417 319 q 381 288 381 241 q 381 191 417 157 q 453 123 504 123 q 562 123 597 156 q 631 188 631 241 z"},".":{"x_min":0,"x_max":222,"ha":222,"o":"m 165 38 q 165 15 149 0 q 133 -16 110 -16 q 87 -16 72 0 q 56 15 56 38 q 56 62 71 77 q 87 93 110 93 q 133 93 149 77 q 165 62 165 38 z"},"p":{"x_min":0,"x_max":560,"ha":560,"o":"m 513 286 q 513 157 441 69 q 372 -16 278 -16 q 245 -16 217 -3 q 195 7 166 33 l 166 -71 q 166 -99 177 -116 q 182 -125 195 -137 q 200 -141 200 -144 q 200 -147 193 -150 q 186 -153 177 -156 q 162 -163 142 -176 q 128 -184 116 -194 q 104 -204 92 -214 q 88 -216 85 -216 q 80 -216 81 -206 q 91 -180 97 -154 q 104 -128 104 -101 l 104 337 q 104 379 78 405 q 67 417 40 431 q 37 432 37 435 q 37 436 38 438 q 39 440 40 441 q 42 444 48 449 q 57 456 62 461 q 69 468 73 473 q 77 477 80 481 q 82 484 85 484 q 88 484 90 482 q 110 467 129 443 q 157 408 162 374 q 181 412 214 440 q 263 482 323 482 q 384 482 430 447 q 469 417 492 367 q 513 323 513 286 z m 447 251 q 447 321 408 375 q 367 431 307 431 q 256 431 218 399 q 187 373 166 328 l 166 44 l 186 62 q 194 70 199 76 q 204 82 211 93 q 213 96 216 96 q 222 96 220 88 q 219 87 218 78 q 216 70 216 64 q 216 53 221 43 q 227 30 245 21 q 264 13 283 13 q 357 13 402 79 q 447 145 447 251 z"},"X":{"x_min":0,"x_max":592,"ha":592,"o":"m 563 14 q 569 9 569 5 q 569 0 560 0 q 548 0 540 0 q 498 3 487 3 q 467 3 455 2 q 443 1 427 0 q 416 0 416 5 q 416 8 420 13 q 427 20 431 23 q 437 29 437 35 q 437 39 434 44 q 420 62 387 113 q 370 138 354 163 q 327 204 301 248 q 282 281 262 320 q 238 302 214 276 q 186 246 163 212 q 135 169 120 129 q 104 89 104 51 q 104 38 114 27 q 125 18 130 13 q 135 9 135 5 q 135 0 127 0 q 122 0 103 1 q 84 3 73 3 q 58 3 47 2 q 37 1 23 0 q 12 0 12 6 q 12 8 16 12 q 28 20 35 25 q 49 35 52 49 q 60 82 80 130 q 102 183 123 217 q 152 262 177 289 q 202 317 245 354 q 232 379 216 417 q 195 463 182 501 q 171 531 162 562 q 153 593 146 624 q 143 636 124 652 q 111 662 99 673 q 96 676 96 678 q 96 684 106 684 q 109 684 130 682 q 150 681 168 681 q 188 681 199 681 q 211 682 228 684 q 240 684 240 678 q 240 675 237 672 q 227 661 216 651 q 209 642 211 634 q 219 593 247 520 q 274 446 299 398 q 375 460 379 463 q 432 508 460 542 q 497 587 497 620 q 497 640 485 650 q 473 661 454 661 q 447 661 440 660 q 433 659 426 653 q 418 648 411 638 q 407 632 406 623 q 404 614 403 611 q 402 607 399 607 q 397 607 395 609 q 389 615 386 625 q 382 634 382 645 q 383 648 383 650 q 383 677 405 696 q 428 716 457 716 q 497 716 521 692 q 544 669 544 633 q 544 584 499 528 q 466 489 402 437 q 319 369 316 366 q 346 305 389 235 q 423 178 462 122 q 491 82 517 49 q 524 39 537 31 q 550 22 563 14 z"},"*":{"x_min":0,"x_max":397,"ha":397,"o":"m 355 493 l 351 483 q 340 469 335 459 q 329 449 320 430 q 314 419 312 420 q 309 421 307 435 q 306 448 302 451 l 208 518 l 221 403 q 221 398 232 390 q 244 382 243 378 l 236 376 q 234 376 222 377 q 209 378 200 378 q 191 378 183 377 q 174 376 164 376 l 157 378 q 157 382 168 390 q 180 397 180 403 l 190 518 l 99 451 q 94 448 93 435 q 92 422 88 420 q 86 419 78 435 q 73 445 67 456 q 61 467 50 482 q 44 491 46 493 q 47 496 61 489 q 70 485 75 485 l 79 486 l 182 531 l 79 578 q 74 580 61 574 q 48 568 46 571 q 44 573 50 582 q 61 597 66 607 q 72 617 81 635 l 88 646 q 91 644 92 630 q 93 617 99 613 l 191 547 l 180 659 q 180 665 168 672 q 157 680 157 685 l 164 687 q 167 687 179 686 q 191 685 200 685 q 209 685 218 685 q 227 686 237 687 l 243 685 q 244 680 232 673 q 221 665 221 659 l 208 547 l 300 613 q 304 616 306 630 q 307 644 311 646 q 313 646 318 635 q 327 616 332 607 q 337 598 349 582 l 354 571 q 350 569 332 576 q 323 580 319 578 l 215 531 l 321 486 q 324 485 327 485 q 332 485 342 490 q 352 495 355 493 z"},"Y":{"x_min":0,"x_max":615,"ha":615,"o":"m 579 675 q 576 670 571 661 q 561 637 555 601 q 552 586 542 510 q 531 435 521 377 q 509 301 492 234 q 466 127 435 50 q 396 -49 349 -102 q 293 -165 226 -165 q 186 -165 159 -146 q 130 -125 130 -92 q 130 -78 135 -65 q 140 -52 147 -47 q 151 -45 153 -45 q 158 -45 159 -51 q 160 -57 160 -62 q 161 -67 163 -73 q 168 -85 183 -92 q 201 -102 228 -102 q 273 -102 321 -45 q 361 2 398 81 q 429 147 446 212 q 420 162 372 127 q 321 91 271 91 q 181 91 130 167 q 83 237 83 352 q 83 406 106 469 q 125 517 156 569 q 173 597 201 636 q 177 636 146 646 q 115 657 98 657 q 87 657 77 651 q 66 644 66 634 q 66 610 81 610 q 88 610 93 616 q 95 619 98 626 q 101 630 104 626 q 106 620 106 612 q 106 598 97 588 q 87 578 73 578 q 60 578 51 589 q 42 600 42 618 q 42 623 42 625 q 44 648 63 666 q 84 685 114 685 q 129 685 169 676 q 190 672 203 672 q 217 672 229 679 q 236 683 242 690 q 245 693 247 693 q 249 694 251 692 q 254 690 257 688 q 260 685 262 683 q 263 677 261 675 q 237 649 222 627 q 191 583 172 528 q 146 456 146 375 q 146 274 183 216 q 223 152 298 152 q 375 152 425 223 q 468 283 487 391 q 498 450 498 514 q 498 581 487 620 q 482 639 472 656 q 465 668 457 676 q 455 678 455 680 q 455 684 464 684 q 478 681 491 679 q 504 678 517 678 q 532 678 551 681 q 571 684 574 684 q 582 685 582 681 q 582 678 579 675 z"},"c":{"x_min":0,"x_max":494,"ha":494,"o":"m 468 118 q 468 111 464 102 q 448 62 408 29 q 353 -16 280 -16 q 173 -16 110 49 q 46 115 46 230 q 46 332 119 407 q 192 482 294 482 q 353 482 396 451 q 444 417 444 364 q 444 320 416 289 q 388 259 347 259 q 312 259 286 279 q 259 301 259 335 q 259 357 273 376 q 286 393 300 396 q 305 398 308 396 q 311 393 310 389 q 307 382 306 377 q 303 368 303 360 q 303 354 304 352 q 307 336 320 328 q 333 320 350 320 q 373 320 387 337 q 401 354 401 380 q 401 417 366 438 q 333 458 290 458 q 208 458 156 395 q 105 333 105 238 q 105 156 158 98 q 212 38 292 38 q 342 38 376 53 q 409 68 444 108 q 445 109 450 117 q 454 122 457 124 q 459 125 464 124 q 468 123 468 118 z"},"!":{"x_min":0,"x_max":214,"ha":214,"o":"m 165 694 q 155 682 151 673 q 143 657 143 638 l 143 184 q 143 176 135 171 l 114 161 q 107 157 99 152 q 91 147 87 146 q 83 144 81 144 q 76 144 76 150 l 76 595 q 76 610 69 617 q 64 621 57 623 q 49 624 49 628 q 49 632 55 635 q 66 642 78 649 q 90 657 106 668 q 118 676 138 690 q 151 701 156 703 q 162 706 164 706 q 168 706 168 702 q 168 698 165 694 z m 165 38 q 165 15 149 0 q 133 -16 110 -16 q 87 -16 72 0 q 56 15 56 38 q 56 62 71 77 q 87 93 110 93 q 133 93 149 77 q 165 62 165 38 z"},"/":{"x_min":0,"x_max":292,"ha":292,"o":"m 351 720 q 327 702 312 687 q 294 666 281 637 q 263 599 240 535 q 228 500 201 416 q 176 338 164 305 q 135 224 119 183 q 96 125 80 90 q 62 49 46 26 q 21 -15 -9 -39 q -30 -55 -52 -62 q -56 -64 -63 -64 q -70 -64 -75 -62 q -81 -61 -81 -58 q -81 -56 -77 -53 q -56 -35 -38 -14 q -20 8 -9 30 q 17 81 37 132 q 49 162 70 223 q 91 284 103 314 q 111 338 140 424 q 169 510 183 545 q 207 610 226 641 q 247 678 279 704 q 303 723 324 729 q 329 731 334 731 q 342 731 347 729 q 353 727 353 723 q 353 721 351 720 z"},"[":{"x_min":0,"x_max":286,"ha":286,"o":"m 260 663 l 260 658 l 255 658 q 250 662 246 664 q 239 668 231 669 q 224 671 204 672 q 184 673 166 674 l 166 -130 q 184 -129 202 -128 q 220 -127 229 -126 q 238 -124 245 -122 q 251 -120 254 -117 l 258 -117 l 259 -120 l 258 -135 q 258 -141 258 -147 q 258 -153 259 -157 q 260 -161 258 -163 q 256 -165 253 -162 q 249 -159 244 -157 q 236 -154 228 -154 l 102 -154 l 102 698 l 228 698 q 238 698 243 700 q 249 702 254 706 l 257 707 l 259 703 l 258 679 q 258 670 258 667 q 259 665 260 663 z"},"6":{"x_min":0,"x_max":533,"ha":533,"o":"m 486 194 q 486 113 428 50 q 367 -16 282 -16 q 180 -16 117 73 q 60 154 60 268 q 60 406 143 512 q 230 623 355 623 q 399 623 429 605 q 463 585 470 548 q 470 545 470 541 q 470 521 453 506 q 436 490 414 490 q 400 490 388 494 q 376 499 368 507 q 365 510 365 513 q 365 518 372 519 q 388 519 397 530 q 404 540 404 554 q 404 574 385 585 q 366 596 342 596 q 249 596 187 509 q 123 419 123 275 q 123 175 169 105 q 220 28 305 28 q 367 28 408 79 q 448 127 448 193 q 448 254 410 300 q 371 348 313 348 q 289 348 264 336 q 239 325 230 306 q 229 302 228 296 q 227 291 227 287 q 228 277 228 273 q 228 267 222 267 q 219 267 216 271 q 211 277 208 283 q 201 293 190 304 q 183 312 177 316 q 172 320 170 321 q 167 324 167 329 q 167 332 169 335 q 183 357 213 376 q 255 403 304 403 q 384 403 436 341 q 486 281 486 194 z"},"r":{"x_min":0,"x_max":401,"ha":401,"o":"m 394 411 q 394 383 378 365 q 363 348 338 348 q 320 348 307 353 q 294 357 290 366 q 289 368 290 371 q 291 373 294 373 q 303 373 310 375 q 318 378 324 384 q 332 394 332 407 q 332 423 319 433 q 305 444 277 444 q 243 444 209 414 q 179 386 163 348 l 163 48 q 163 39 174 30 q 183 22 192 15 q 197 10 197 6 q 197 0 187 0 q 178 0 172 0 q 142 3 132 3 q 113 3 102 2 q 91 1 77 0 q 66 0 66 5 q 66 10 72 16 q 81 23 85 26 q 101 39 101 48 l 101 337 q 101 371 83 393 q 70 407 30 425 q 28 425 28 428 q 28 431 30 433 l 53 454 q 59 460 64 466 q 65 468 70 475 q 73 478 77 478 q 79 478 81 477 q 108 458 122 444 q 151 414 155 383 q 173 423 209 451 q 250 482 301 482 q 344 482 369 462 q 394 441 394 411 z"},"2":{"x_min":0,"x_max":484,"ha":484,"o":"m 418 82 q 412 70 405 59 q 399 47 395 35 q 391 23 389 12 q 387 1 386 -9 q 384 -16 379 -16 q 377 -16 374 -15 q 340 1 306 7 q 259 16 201 16 q 130 16 80 2 q 77 1 29 -17 q 23 -19 23 -13 l 23 -8 q 27 9 48 46 q 68 81 91 111 q 133 168 209 235 q 284 301 305 330 q 345 385 345 458 q 345 516 307 557 q 268 600 207 600 q 154 600 118 570 q 82 540 82 500 q 82 472 94 454 q 107 433 132 433 q 144 433 152 436 q 160 440 168 449 q 171 452 173 456 q 175 459 176 464 q 178 469 183 469 q 190 462 193 449 q 195 436 195 425 q 193 403 172 387 q 151 371 124 371 q 87 371 64 401 q 40 431 40 471 q 40 537 94 581 q 146 623 217 623 q 301 623 354 580 q 414 530 414 440 q 414 393 392 354 q 375 323 336 288 q 324 277 262 228 q 225 199 188 170 q 149 139 127 113 q 98 81 72 33 q 117 54 165 63 q 212 72 272 72 q 288 72 332 70 q 338 70 346 70 q 354 71 366 73 q 377 75 392 81 q 401 84 411 89 q 416 90 417 88 q 419 86 418 82 z"},"{":{"x_min":0,"x_max":324,"ha":324,"o":"m 313 -148 q 253 -148 221 -140 q 189 -132 169 -113 q 131 -80 131 18 l 131 124 q 131 194 102 227 q 76 257 21 262 l 21 288 q 77 293 102 321 q 131 353 131 426 l 131 532 q 131 628 169 663 q 188 681 222 690 q 255 698 313 698 l 313 676 q 242 676 220 651 q 198 626 198 549 l 198 478 q 198 422 191 386 q 183 350 167 330 q 152 309 128 294 q 104 280 73 274 q 102 270 127 255 q 151 241 167 220 q 198 183 198 71 l 198 0 q 198 -77 218 -101 q 240 -127 313 -127 z"},"9":{"x_min":0,"x_max":532,"ha":532,"o":"m 474 341 q 474 168 363 36 q 253 -96 111 -96 q 66 -96 39 -84 q 2 -69 2 -37 q 2 -19 15 -8 q 29 4 48 4 q 58 4 66 1 q 75 -1 79 -6 q 83 -10 83 -13 q 83 -16 77 -17 q 71 -18 66 -22 q 62 -28 62 -38 q 62 -56 83 -63 q 99 -68 125 -68 q 233 -68 318 36 q 409 147 409 307 q 409 416 372 493 q 326 589 238 589 q 175 589 134 547 q 89 502 89 424 q 89 356 125 307 q 164 253 224 253 q 251 253 272 266 q 296 281 296 306 q 296 323 292 330 q 289 338 281 342 l 277 347 q 277 350 282 353 q 293 358 305 356 q 330 356 346 335 q 361 314 361 286 q 361 243 320 216 q 283 192 232 192 q 149 192 98 256 q 48 319 48 421 q 48 505 109 564 q 170 623 254 623 q 354 623 416 535 q 474 453 474 341 z"}," ":{"x_min":0,"x_max":250,"ha":250,"o":""},"I":{"x_min":0,"x_max":264,"ha":264,"o":"m 201 11 q 202 10 203 8 q 203 6 203 5 q 203 0 194 0 q 189 0 165 1 q 141 3 132 3 q 116 3 85 0 q 73 0 68 0 q 60 0 60 6 q 60 8 62 10 q 63 12 83 27 q 98 39 98 48 l 98 636 q 98 645 83 657 q 72 665 62 674 q 60 676 61 680 q 62 684 68 684 q 73 684 98 682 q 122 681 132 681 q 151 681 172 682 q 192 684 194 684 q 203 684 203 678 q 203 675 201 673 q 200 671 181 657 q 166 645 166 636 l 166 48 q 166 39 181 27 q 200 12 201 11 z"},"H":{"x_min":0,"x_max":715,"ha":715,"o":"m 652 11 q 653 10 654 8 q 654 6 654 5 q 654 0 646 0 q 641 0 616 1 q 592 3 583 3 q 567 3 536 0 q 524 0 520 0 q 511 0 511 6 q 511 8 513 10 q 514 12 534 27 q 549 39 549 48 l 549 474 q 521 462 486 457 q 451 451 416 451 q 377 451 325 462 q 273 474 234 491 l 234 48 q 234 39 249 27 q 269 12 270 11 q 271 10 271 8 q 271 6 271 5 q 271 0 263 0 q 258 0 234 1 q 209 3 200 3 q 185 3 153 0 q 142 0 137 0 q 128 0 128 6 q 128 8 130 10 q 131 12 151 27 q 166 39 166 48 l 166 495 q 159 496 154 496 q 122 496 96 481 q 64 463 64 434 q 64 419 71 411 q 75 405 83 400 q 91 396 105 396 q 112 396 114 396 q 120 398 120 393 q 120 390 116 387 q 108 379 98 375 q 83 368 68 368 q 44 368 27 381 q 6 397 6 427 q 6 459 23 483 q 39 502 67 518 q 83 526 104 531 q 132 537 166 537 l 166 636 q 166 645 151 657 q 141 665 130 674 q 128 676 129 680 q 130 684 137 684 q 142 684 166 682 q 190 681 200 681 q 220 681 240 682 q 260 684 263 684 q 271 684 271 678 q 271 675 270 673 q 269 671 250 657 q 234 645 234 636 l 234 531 q 273 513 328 499 q 383 484 427 484 q 461 484 480 488 q 510 493 549 511 l 549 636 q 549 645 534 657 q 523 665 513 674 q 511 676 512 680 q 513 684 520 684 q 524 684 549 682 q 573 681 583 681 q 603 681 623 682 q 643 684 646 684 q 654 684 654 678 q 654 675 652 673 q 651 671 632 657 q 617 645 617 636 l 617 48 q 617 39 632 27 q 651 12 652 11 z"},"4":{"x_min":0,"x_max":556,"ha":556,"o":"m 521 284 q 521 241 481 210 q 443 182 394 182 l 378 182 q 361 182 354 182 q 346 183 332 188 q 332 151 337 124 q 339 115 348 84 q 354 61 364 44 q 369 36 377 26 l 379 23 l 380 20 q 380 18 378 16 l 374 15 l 367 15 q 358 15 350 13 q 342 12 328 6 q 314 0 305 -6 q 300 -9 294 -14 q 290 -17 288 -17 q 284 -17 282 -12 q 276 4 273 60 q 271 116 271 191 q 258 195 244 196 q 230 198 214 198 q 188 198 164 195 q 139 191 112 185 q 84 178 61 166 q 47 158 34 150 q 24 146 24 158 q 24 161 24 164 q 24 188 39 238 q 54 289 79 341 q 109 403 144 445 q 194 508 252 545 q 301 577 386 608 q 392 611 400 615 l 423 625 q 427 626 429 624 q 430 622 429 617 l 396 551 q 377 507 363 456 q 346 393 340 345 q 334 297 334 229 q 354 224 370 221 q 387 219 406 219 q 438 219 463 230 q 492 243 492 263 q 492 275 487 283 q 482 292 472 293 q 468 293 465 292 q 461 290 458 288 q 455 285 452 285 q 449 285 449 291 q 449 301 457 315 q 465 330 473 333 q 477 334 479 334 q 494 334 507 321 q 521 307 521 284 z m 376 578 q 316 565 254 520 q 184 468 135 393 q 78 306 59 201 q 89 217 118 227 q 154 239 182 241 q 210 244 229 244 q 249 244 276 239 q 276 275 280 301 q 284 326 292 359 q 295 369 311 421 q 324 465 339 501 q 352 532 376 578 z"},"~":{"x_min":0,"x_max":488,"ha":488,"o":"m 473 425 q 460 376 429 336 q 391 286 346 286 q 308 286 272 320 q 244 352 216 384 q 182 419 147 419 q 115 419 95 379 q 74 339 74 287 l 18 338 q 35 390 62 426 q 100 476 145 476 q 184 476 219 441 q 246 409 274 377 q 307 343 343 343 q 375 343 396 383 q 416 423 416 475 z"},"D":{"x_min":0,"x_max":695,"ha":695,"o":"m 644 363 q 644 242 566 151 q 498 70 381 25 q 275 -16 161 -16 q 157 -16 154 -16 q 148 -16 141 -15 q 133 -15 133 -11 q 133 -8 140 -2 q 168 22 183 62 q 197 101 197 163 l 197 282 q 116 291 69 337 q 18 389 18 481 q 18 576 107 639 q 191 698 302 698 q 447 698 542 610 q 644 517 644 363 z m 574 389 q 574 506 500 586 q 423 669 302 669 q 204 669 132 620 q 54 565 54 479 q 54 403 95 361 q 130 326 197 313 l 197 494 q 197 511 185 517 q 179 519 174 521 q 169 523 169 528 q 169 531 173 533 q 176 535 193 542 q 210 549 229 558 q 242 564 269 580 q 278 584 283 587 q 291 590 291 583 q 291 580 290 578 q 278 562 272 550 q 266 538 266 527 l 266 317 q 296 317 334 348 q 377 383 377 421 q 377 437 371 447 q 364 457 354 457 q 344 457 338 455 q 332 453 330 449 q 327 443 324 443 q 322 443 320 447 q 320 449 320 454 q 320 458 321 463 q 333 496 368 496 q 396 496 410 476 q 423 458 423 429 q 423 380 373 336 q 324 292 266 285 l 266 172 q 266 128 252 89 q 239 49 217 22 q 304 22 384 64 q 468 109 519 188 q 574 276 574 389 z"},"^":{"x_min":0,"x_max":488,"ha":488,"o":"m 479 266 q 483 263 483 261 q 483 259 478 259 q 475 260 474 260 q 470 260 460 261 q 451 262 446 262 q 439 262 432 261 q 425 261 417 260 q 413 261 411 261 q 400 261 396 267 q 354 329 309 387 q 267 442 253 452 q 245 446 222 418 q 195 385 169 351 q 140 311 110 267 q 107 261 98 261 q 95 260 89 260 q 82 260 74 261 q 67 261 60 262 q 54 262 44 260 q 35 259 31 259 q 23 259 23 261 q 23 263 26 266 q 68 304 102 342 q 125 369 151 404 q 177 438 198 469 q 211 487 228 512 l 278 512 q 288 496 296 484 q 318 453 355 403 q 378 372 404 343 q 440 302 479 266 z"},"0":{"x_min":0,"x_max":552,"ha":552,"o":"m 511 312 q 511 186 439 87 q 365 -16 263 -16 q 164 -16 105 64 q 47 143 47 277 q 47 353 79 431 q 105 495 140 530 q 147 538 149 535 q 152 533 152 529 q 152 526 151 525 q 150 522 149 520 q 132 479 121 427 q 109 375 109 326 q 109 189 157 105 q 204 21 281 21 q 354 21 396 80 q 445 148 445 280 q 445 417 394 512 q 344 603 276 603 q 215 603 215 553 q 215 541 222 532 q 230 524 240 524 q 248 524 253 530 q 258 537 260 540 q 262 542 265 542 q 268 542 270 538 q 271 533 271 522 q 271 519 270 507 q 269 496 255 484 q 242 473 227 473 q 202 473 186 492 q 170 512 170 542 q 170 577 204 600 q 238 623 284 623 q 380 623 445 533 q 511 443 511 312 z"},"F":{"x_min":0,"x_max":591,"ha":591,"o":"m 619 701 q 619 664 571 638 q 527 615 473 615 q 425 615 389 623 q 353 631 319 639 q 297 642 280 643 q 263 644 234 644 l 234 451 q 259 446 295 442 q 332 438 369 438 q 410 438 433 446 q 464 457 464 481 q 464 494 458 500 q 453 505 444 505 q 442 505 438 504 q 435 502 434 502 q 431 501 429 502 q 427 503 429 509 q 431 520 441 530 q 451 540 463 540 q 484 540 495 526 q 505 513 505 493 q 505 451 452 420 q 403 393 345 393 q 286 393 234 404 l 234 48 q 234 39 249 27 q 269 12 270 11 q 271 10 271 8 q 271 6 271 5 q 271 0 263 0 q 258 0 234 1 q 209 3 200 3 q 185 3 153 0 q 142 0 137 0 q 128 0 128 6 q 128 8 130 10 q 131 12 151 27 q 166 39 166 48 l 166 410 q 134 410 111 400 q 83 388 83 365 q 83 353 86 345 q 88 336 96 329 q 98 327 98 325 q 98 321 94 321 q 83 318 68 330 q 51 343 51 365 q 51 405 88 429 q 121 451 166 451 l 166 634 q 157 633 148 630 q 122 621 101 598 q 83 578 77 559 q 73 547 73 532 q 73 528 73 526 q 73 520 70 520 q 68 520 65 522 q 61 528 57 540 q 54 551 54 562 q 54 589 77 618 q 102 648 144 668 q 176 683 217 691 q 258 698 302 698 q 339 698 378 688 q 418 678 458 667 q 497 657 526 657 q 549 657 564 665 q 583 675 583 693 q 583 706 576 711 q 569 717 563 714 q 557 711 555 711 q 551 711 553 716 q 556 726 562 733 q 572 743 583 743 q 602 743 610 731 q 619 719 619 701 z"},"`":{"x_min":0,"x_max":488,"ha":488,"o":"m 354 737 q 352 731 348 728 q 344 724 341 728 q 319 740 307 747 q 257 775 242 782 q 210 800 183 815 q 161 828 157 829 q 153 831 153 833 q 153 835 158 840 q 163 845 166 848 q 170 853 173 857 l 187 882 q 189 885 192 885 q 194 885 196 883 q 209 870 268 819 q 273 814 324 771 q 341 755 352 745 q 356 741 354 737 z"},"k":{"x_min":0,"x_max":484,"ha":484,"o":"m 479 25 q 479 10 467 -1 q 454 -13 438 -13 q 402 -13 376 20 q 360 40 334 93 q 309 147 290 169 q 257 208 231 226 q 197 249 158 249 l 158 48 q 158 40 168 31 q 177 23 187 16 q 192 10 192 6 q 192 0 182 0 q 173 0 167 0 q 137 3 127 3 q 109 3 98 2 q 87 1 73 0 q 62 0 62 6 q 62 9 66 15 q 79 24 84 30 q 96 40 96 48 l 96 570 q 96 584 95 593 q 94 601 83 600 q 78 599 65 590 q 52 582 48 580 q 41 578 41 585 q 41 588 43 592 q 46 597 70 620 q 89 638 101 649 q 117 666 137 689 q 150 705 154 708 q 155 709 157 709 q 159 710 160 710 q 164 710 164 702 q 162 687 160 663 q 158 640 158 614 l 158 283 q 188 294 221 311 q 268 334 299 358 q 333 386 346 401 q 366 425 366 454 q 366 468 358 478 q 350 487 336 487 q 326 487 319 482 q 312 476 312 469 q 312 456 307 456 q 305 456 302 458 q 294 462 288 472 q 282 481 282 493 q 282 518 300 534 q 318 551 344 551 q 373 551 392 528 q 411 506 411 476 q 411 437 388 402 q 369 374 333 348 q 311 332 274 310 q 229 284 200 273 q 240 266 271 252 q 322 231 349 199 q 371 172 382 140 q 392 114 396 78 q 399 41 401 36 q 407 15 421 18 q 424 18 425 29 q 425 40 426 41 q 430 58 450 58 q 464 58 472 48 q 479 39 479 25 z"},"u":{"x_min":0,"x_max":562,"ha":562,"o":"m 502 31 q 501 30 490 21 q 485 17 479 11 q 472 4 467 -1 q 466 -3 461 -10 q 459 -13 456 -13 q 453 -13 449 -11 q 430 1 414 21 q 390 51 390 81 q 374 47 339 20 q 294 -15 245 -15 q 156 -15 107 44 q 65 96 65 174 q 65 219 77 260 q 86 294 104 331 q 111 344 139 392 q 141 397 132 403 q 126 407 109 414 q 101 418 92 423 q 88 424 88 428 q 88 431 96 433 q 104 435 113 437 q 128 440 146 447 q 164 454 179 462 q 195 470 210 479 q 214 480 215 480 q 217 480 219 478 q 221 475 219 470 q 218 466 216 464 q 172 408 149 350 q 121 282 121 214 q 121 136 157 85 q 193 35 253 35 q 294 35 332 60 q 371 85 385 120 l 385 419 q 385 428 373 439 q 363 447 354 455 q 351 458 351 461 q 351 467 360 467 q 366 467 389 465 q 412 464 416 464 q 436 464 447 465 q 458 465 473 467 q 481 467 481 460 q 481 457 479 454 q 467 445 460 439 q 447 428 447 419 l 447 131 q 447 90 468 66 q 475 58 500 42 q 503 40 503 36 q 503 34 502 31 z"},"]":{"x_min":0,"x_max":286,"ha":286,"o":"m 185 -154 l 59 -154 q 49 -154 43 -156 q 38 -158 33 -162 q 30 -164 28 -163 q 26 -161 27 -157 q 28 -140 28 -135 l 27 -120 l 28 -117 l 32 -117 q 36 -120 41 -122 q 46 -124 58 -126 q 62 -127 82 -128 q 102 -129 120 -130 l 120 674 q 103 673 84 672 q 66 671 57 670 q 47 668 40 664 q 37 662 31 658 l 27 658 q 25 659 26 663 q 28 669 28 679 l 27 703 l 28 707 l 32 706 q 38 702 44 700 q 51 698 59 698 l 185 698 z"},"U":{"x_min":0,"x_max":653,"ha":653,"o":"m 623 29 q 623 16 607 1 q 588 -16 565 -16 q 531 -16 509 17 q 488 46 488 85 q 448 34 394 8 q 343 -17 282 -17 q 171 -17 109 71 q 52 151 52 278 q 52 349 93 426 q 125 488 185 555 q 229 604 277 646 q 266 640 252 637 q 239 634 224 634 q 212 634 202 636 q 160 646 117 657 q 106 657 99 651 q 91 644 91 634 q 90 626 94 621 q 98 616 104 615 q 113 615 118 617 q 122 620 124 621 q 126 623 128 623 q 131 622 131 616 q 131 604 123 592 q 112 576 95 576 q 80 576 71 588 q 62 599 62 616 q 62 622 64 630 q 71 653 96 673 q 124 694 152 694 q 171 694 193 688 q 241 674 259 674 q 280 674 297 680 q 305 682 317 689 q 323 692 325 692 q 329 692 336 684 q 343 676 343 672 q 343 667 339 663 q 312 644 288 621 q 263 598 239 569 q 203 525 179 485 q 151 438 138 390 q 122 335 122 274 q 122 178 164 114 q 213 38 305 38 q 364 38 414 65 q 455 88 487 127 l 487 636 q 487 645 473 657 q 462 665 451 674 q 450 676 450 680 q 451 684 458 684 q 463 684 487 682 q 512 681 521 681 q 541 681 561 682 q 582 684 584 684 q 593 684 593 678 q 593 675 591 673 q 590 671 571 657 q 556 645 556 636 l 556 109 q 556 73 562 52 q 572 24 592 24 q 601 24 606 27 q 611 29 617 35 q 619 37 621 37 q 622 37 623 35 q 624 32 623 29 z"},"o":{"x_min":0,"x_max":573,"ha":573,"o":"m 533 230 q 533 128 458 55 q 385 -16 285 -16 q 180 -16 108 57 q 36 130 36 235 q 36 337 110 410 q 183 482 286 482 q 390 482 461 409 q 533 335 533 230 z m 491 209 q 491 290 417 362 q 340 438 249 438 q 178 438 128 389 q 78 340 78 273 q 78 177 154 103 q 228 29 317 29 q 388 29 438 75 q 491 125 491 209 z"},"N":{"x_min":0,"x_max":662,"ha":662,"o":"m 601 14 q 605 10 605 6 q 605 0 597 0 q 587 0 581 0 q 549 3 538 3 q 519 3 508 2 q 496 1 481 0 q 471 0 471 5 q 471 8 477 14 q 491 23 498 29 q 511 39 511 48 l 505 197 q 495 172 472 154 q 446 133 415 133 q 384 133 362 149 q 340 166 340 194 q 340 215 354 230 q 368 245 388 245 q 396 245 401 244 q 406 244 409 240 q 413 237 413 234 q 413 231 408 231 q 402 231 398 229 q 394 227 391 221 q 389 216 389 207 q 389 201 390 198 q 394 184 407 177 q 417 172 430 172 q 452 172 467 193 q 481 214 481 241 q 481 269 469 289 q 459 304 430 329 q 403 352 367 371 q 274 418 261 428 q 229 450 204 482 q 181 510 169 536 l 133 48 q 133 39 146 29 q 156 21 166 13 q 169 9 169 5 q 169 0 161 0 q 156 0 136 1 q 117 3 105 3 q 91 3 73 1 q 54 0 51 0 q 42 0 42 5 q 42 8 46 13 q 48 15 71 29 q 89 40 90 48 l 135 636 q 135 645 121 656 q 110 664 99 672 q 95 675 95 679 q 95 685 107 684 q 116 684 122 683 q 151 681 159 681 q 171 681 191 682 q 210 684 215 684 q 223 684 223 678 q 223 675 221 673 q 208 665 200 659 q 186 649 185 636 q 185 605 198 578 q 211 551 235 531 q 259 510 292 493 q 321 479 350 465 q 385 448 411 426 q 441 401 466 369 q 489 340 499 315 l 478 636 q 477 645 458 655 q 433 670 432 672 q 428 676 428 679 q 428 684 438 684 q 447 684 453 683 q 485 681 495 681 q 514 681 533 682 q 552 684 555 684 q 562 684 562 679 q 562 675 559 672 q 544 662 536 656 q 521 645 521 636 l 558 48 q 558 41 568 33 q 584 23 601 14 z"},"+":{"x_min":0,"x_max":391,"ha":391,"o":"m 349 291 l 217 291 l 217 148 l 175 148 l 175 291 l 44 291 l 44 330 l 175 330 l 175 474 l 217 474 l 217 330 l 349 330 z"},"G":{"x_min":0,"x_max":680,"ha":680,"o":"m 641 691 q 641 664 616 646 q 592 629 559 629 q 522 629 482 642 q 395 671 362 671 q 254 671 183 579 q 115 492 115 372 q 115 228 199 124 q 286 16 413 16 q 426 16 446 18 q 466 20 494 28 q 522 37 535 47 q 527 55 521 63 q 517 70 511 82 q 505 95 503 113 q 502 132 502 161 l 502 380 q 482 371 468 368 q 453 364 433 364 q 413 364 380 384 q 347 404 327 404 q 312 404 300 397 q 287 390 287 376 q 287 346 313 349 q 322 350 326 352 q 331 354 333 357 q 334 360 336 360 q 339 360 339 356 q 341 350 341 342 q 341 338 340 332 q 339 326 329 317 q 318 309 305 309 q 283 309 272 325 q 260 342 260 364 q 260 369 261 371 q 264 404 290 425 q 315 445 351 445 q 384 445 415 434 q 483 408 521 408 q 540 408 560 415 q 581 422 603 431 q 609 431 606 425 q 599 416 592 408 q 570 380 570 350 l 570 143 q 570 104 586 76 q 591 67 609 47 q 612 44 612 42 q 612 39 608 36 q 588 21 527 4 q 454 -16 394 -16 q 246 -16 144 95 q 44 204 44 355 q 44 500 131 597 q 222 699 364 699 q 412 699 471 680 q 529 661 541 661 q 583 661 583 691 q 583 704 575 710 q 568 717 558 717 q 554 718 550 717 q 546 715 544 715 q 541 713 539 714 q 537 714 537 717 q 537 720 539 724 q 545 738 559 745 q 572 752 587 752 q 613 752 627 735 q 641 717 641 691 z"},"q":{"x_min":0,"x_max":549,"ha":549,"o":"m 510 430 q 513 427 513 424 q 513 421 509 419 q 474 403 471 400 q 444 379 444 340 l 444 -71 q 444 -99 455 -116 q 460 -125 474 -137 q 478 -141 478 -144 q 478 -148 472 -149 q 459 -155 446 -161 q 433 -168 420 -176 q 404 -187 389 -198 q 372 -212 371 -213 q 367 -216 364 -216 q 358 -216 358 -210 q 358 -208 359 -205 q 370 -179 376 -154 q 382 -128 382 -101 l 382 70 q 358 33 327 12 q 288 -13 237 -13 q 155 -13 99 61 q 44 135 44 236 q 44 340 107 411 q 169 482 257 482 q 301 482 337 459 q 367 441 392 407 q 396 425 422 450 q 443 470 458 478 q 462 479 463 479 q 467 479 469 476 q 473 470 477 464 q 484 457 487 453 q 493 447 500 440 q 506 433 510 430 z m 382 174 l 382 336 q 382 383 345 416 q 308 449 255 449 q 186 449 144 391 q 106 338 106 264 q 106 174 147 111 q 192 41 270 41 q 327 41 356 83 q 382 118 382 174 z"},"d":{"x_min":0,"x_max":557,"ha":557,"o":"m 503 34 q 500 33 495 28 q 486 21 481 16 q 475 11 468 4 q 463 -1 462 -3 q 458 -7 454 -7 q 452 -7 446 -4 q 435 4 420 29 q 403 57 396 79 q 374 37 336 10 q 298 -16 254 -16 q 164 -16 106 52 q 49 119 49 223 q 49 327 107 402 q 170 482 266 482 q 306 482 337 469 q 366 458 394 432 l 394 570 q 394 584 393 593 q 392 601 381 600 q 375 599 365 592 q 351 582 349 581 q 346 580 344 580 q 338 580 338 585 q 338 588 341 592 q 344 597 360 612 q 389 640 398 649 q 415 666 435 689 q 448 705 452 708 q 453 709 455 709 q 457 710 458 710 q 462 710 462 702 q 458 670 458 666 q 456 639 456 614 l 456 125 q 456 96 466 77 q 477 58 501 46 q 506 43 506 39 q 506 36 503 34 z m 394 166 l 394 331 q 394 390 353 424 q 316 455 261 455 q 195 455 148 394 q 104 335 104 259 q 104 167 148 106 q 195 39 272 39 q 322 39 356 71 q 394 107 394 166 z"},"1":{"x_min":0,"x_max":318,"ha":318,"o":"m 229 600 q 210 539 201 501 q 188 447 181 381 q 174 316 174 224 q 174 157 186 108 q 196 66 220 31 q 222 28 222 25 q 222 21 217 19 q 206 16 196 14 q 186 11 173 6 q 161 1 151 -4 q 141 -10 138 -12 l 135 -13 l 131 -14 q 127 -14 125 -9 q 118 7 114 54 q 109 101 109 147 q 109 231 128 342 q 147 453 177 548 q 162 529 144 515 q 120 497 99 497 q 83 497 70 507 q 57 517 57 533 q 57 542 58 547 q 59 553 67 559 l 71 557 q 80 546 84 544 q 91 540 102 540 q 131 540 158 570 q 161 574 192 621 q 196 627 203 625 q 211 622 217 619 q 223 616 227 613 q 231 609 231 605 q 231 603 229 600 z"},"5":{"x_min":0,"x_max":481,"ha":481,"o":"m 428 268 q 428 156 345 71 q 259 -16 139 -16 q 83 -16 43 9 q -2 36 -2 84 q -2 107 13 125 q 28 144 50 144 q 72 144 87 135 q 102 125 102 106 q 102 88 93 78 q 90 75 87 75 q 84 75 80 80 q 78 84 75 87 q 69 92 60 92 q 52 92 48 85 q 43 78 43 69 q 43 39 79 22 q 109 8 150 8 q 237 8 301 82 q 365 157 365 253 q 365 316 332 364 q 295 416 238 416 q 204 416 177 406 q 144 393 133 369 q 131 364 129 358 q 128 353 125 342 q 122 339 117 340 l 81 344 q 73 346 74 356 l 83 410 q 87 444 87 476 q 85 576 85 591 q 85 596 86 603 l 89 608 q 91 610 98 610 q 142 599 190 591 q 238 583 289 583 q 317 583 331 587 q 353 594 353 612 q 353 624 348 630 q 346 633 341 635 q 337 637 337 640 q 337 643 342 646 q 346 648 353 649 q 360 649 369 649 q 389 649 403 635 q 418 621 418 602 q 418 569 382 551 q 353 537 311 537 q 259 537 204 547 q 167 554 116 569 q 116 553 116 523 q 115 494 115 476 q 115 426 107 381 q 133 423 173 443 q 212 464 261 464 q 337 464 383 412 q 428 360 428 268 z"}}}
